M48
METRIC,LZ,000.000
;FILE_FORMAT=3:3
;TYPE=PLATED
;Layer: PTH_Through
;EasyEDA v6.5.23, 2023-04-27 09:42:27
;070e00cd3d364d4cb8f93b061264e40a,f016fa541b524367aba1ea0f7d3472e8,10
;Gerber Generator version 0.2
;Holesize 1 = 0.711 mm
T01C0.711
;Holesize 2 = 0.800 mm
T02C0.800
;Holesize 3 = 0.901 mm
T03C0.901
;Holesize 4 = 0.915 mm
T04C0.915
;Holesize 5 = 1.000 mm
T05C1.000
;Holesize 6 = 1.117 mm
T06C1.117
;Holesize 7 = 1.200 mm
T07C1.200
;Holesize 8 = 1.501 mm
T08C1.501
%
G05
G90
T01
X005334Y027813
X007874Y027813
X002794Y027813
T02
X040798Y026377G85X041498Y026377
X046148Y021027G85X046148Y021727
X043637Y021027G85X043637Y021727
X038637Y021027G85X038637Y021727
X036148Y021027G85X036148Y021727
X016401Y003007G85X016701Y003007
X018901Y003007G85X019201Y003007
X021401Y003007G85X021701Y003007
X041593Y003007G85X041893Y003007
X044093Y003007G85X044393Y003007
X046593Y003007G85X046893Y003007
X028997Y003007G85X029297Y003007
X031497Y003007G85X031797Y003007
X033997Y003007G85X034297Y003007
X006985Y023622
X006985Y021082
X025671Y017328G85X025971Y017328
X028171Y017328G85X028471Y017328
X030671Y017328G85X030971Y017328
T03
X002019Y011303
X009919Y011303
X002019Y008763
X009919Y008763
X002019Y006223
X009919Y006223
X002019Y003683
X009919Y003683
T04
X012827Y025019
X020447Y025019
X036957Y017272
X044577Y017272
X012827Y021971
X020447Y021971
T05
X000762Y017907
X005842Y017907
X015748Y017907
X020828Y017907
X008255Y017907
X013335Y017907
T06
X048895Y023114
X002032Y023114
T07
X019050Y028321
X016510Y028321
X013970Y028321
T08
X023852Y009508G85X023852Y010507
X014251Y009508G85X014251Y010507
X049043Y009508G85X049043Y010507
X039443Y009508G85X039443Y010507
X036447Y009508G85X036447Y010507
X026847Y009508G85X026847Y010507
X033121Y023828G85X033121Y024828
X023521Y023828G85X023521Y024828
M30
