G04 Layer: BottomSilkscreenLayer*
G04 EasyEDA v6.5.23, 2023-04-27 09:42:27*
G04 070e00cd3d364d4cb8f93b061264e40a,f016fa541b524367aba1ea0f7d3472e8,10*
G04 Gerber Generator version 0.2*
G04 Scale: 100 percent, Rotated: No, Reflected: No *
G04 Dimensions in millimeters *
G04 leading zeros omitted , absolute positions ,4 integer and 5 decimal *
%FSLAX45Y45*%
%MOMM*%

%ADD10C,0.2032*%
%ADD11C,0.2540*%

%LPD*%
G36*
X543509Y1599488D02*
G01*
X539648Y1597761D01*
X517804Y1586280D01*
X486308Y1569059D01*
X470611Y1560931D01*
X457403Y1554378D01*
X445770Y1549095D01*
X442620Y1547164D01*
X434797Y1541272D01*
X425246Y1533042D01*
X414375Y1522933D01*
X402590Y1511198D01*
X390296Y1498244D01*
X374802Y1480921D01*
X360019Y1463141D01*
X345897Y1444904D01*
X339039Y1435608D01*
X329184Y1421434D01*
X319633Y1407007D01*
X313486Y1397254D01*
X304596Y1382369D01*
X296062Y1367180D01*
X285292Y1346504D01*
X277622Y1330655D01*
X267970Y1309014D01*
X261162Y1292453D01*
X252577Y1269847D01*
X246583Y1252524D01*
X240944Y1234897D01*
X235661Y1216914D01*
X229158Y1192377D01*
X223266Y1167282D01*
X217982Y1141526D01*
X213309Y1115110D01*
X209245Y1088085D01*
X204978Y1053287D01*
X202234Y1024737D01*
X201726Y1023061D01*
X200812Y1023874D01*
X199593Y1026921D01*
X198221Y1031951D01*
X197510Y1036777D01*
X196240Y1055776D01*
X195173Y1084529D01*
X194462Y1119479D01*
X194259Y1157884D01*
X194767Y1193596D01*
X195986Y1224991D01*
X196900Y1239164D01*
X199390Y1264767D01*
X200964Y1276299D01*
X202793Y1287119D01*
X204825Y1297228D01*
X207111Y1306626D01*
X209651Y1315516D01*
X212445Y1323797D01*
X215493Y1331620D01*
X223367Y1349095D01*
X226720Y1358138D01*
X227990Y1362506D01*
X229870Y1371549D01*
X230987Y1381658D01*
X231444Y1393596D01*
X231546Y1411274D01*
X231292Y1419809D01*
X230784Y1426464D01*
X229870Y1431696D01*
X228498Y1435760D01*
X226517Y1439113D01*
X223926Y1442161D01*
X220522Y1445209D01*
X215950Y1448866D01*
X211582Y1452016D01*
X207314Y1454658D01*
X203200Y1456740D01*
X199237Y1458315D01*
X195376Y1459382D01*
X191617Y1459839D01*
X187960Y1459839D01*
X184353Y1459230D01*
X180848Y1458112D01*
X177393Y1456385D01*
X173939Y1454099D01*
X170586Y1451305D01*
X167233Y1447901D01*
X163880Y1443888D01*
X160528Y1439367D01*
X153771Y1428445D01*
X150368Y1422146D01*
X143154Y1407566D01*
X135585Y1392936D01*
X128574Y1380388D01*
X123037Y1371447D01*
X119430Y1366672D01*
X116382Y1361998D01*
X113537Y1356207D01*
X110794Y1348740D01*
X107899Y1338935D01*
X104800Y1326286D01*
X96977Y1290066D01*
X91795Y1263548D01*
X90220Y1254252D01*
X87884Y1235659D01*
X86309Y1215085D01*
X85445Y1190091D01*
X85140Y1158290D01*
X85344Y1092403D01*
X85852Y1068222D01*
X86766Y1046987D01*
X88341Y1027531D01*
X89966Y1013307D01*
X92964Y994003D01*
X96977Y973175D01*
X102209Y949604D01*
X108762Y922121D01*
X116890Y889508D01*
X122529Y868578D01*
X129235Y846785D01*
X136956Y824179D01*
X145643Y800862D01*
X155295Y776884D01*
X165862Y752297D01*
X174345Y733501D01*
X186486Y708101D01*
X202793Y675792D01*
X216712Y649630D01*
X229768Y626567D01*
X243840Y603097D01*
X258775Y579475D01*
X274421Y555955D01*
X294690Y526999D01*
X311251Y504443D01*
X327964Y482701D01*
X336296Y472185D01*
X357022Y447192D01*
X373176Y428802D01*
X388823Y412038D01*
X403758Y397154D01*
X417880Y384352D01*
X424535Y378815D01*
X430936Y373888D01*
X439877Y367487D01*
X450037Y360883D01*
X461060Y354076D01*
X472592Y347370D01*
X484428Y340817D01*
X496163Y334670D01*
X507593Y329082D01*
X518312Y324154D01*
X528066Y320090D01*
X536600Y317042D01*
X548894Y313334D01*
X561187Y310083D01*
X573430Y307238D01*
X585724Y304901D01*
X597966Y302920D01*
X610158Y301447D01*
X622350Y300329D01*
X634492Y299720D01*
X646531Y299466D01*
X658571Y299669D01*
X670509Y300329D01*
X682396Y301396D01*
X694182Y302869D01*
X705866Y304749D01*
X717448Y307086D01*
X728929Y309829D01*
X740359Y312978D01*
X751586Y316585D01*
X762762Y320548D01*
X773734Y324967D01*
X784606Y329742D01*
X795324Y334975D01*
X805891Y340614D01*
X816305Y346608D01*
X826566Y353060D01*
X836625Y359867D01*
X846480Y367131D01*
X856183Y374751D01*
X865682Y382778D01*
X874928Y391210D01*
X890117Y405638D01*
X900582Y416407D01*
X904443Y421081D01*
X907542Y425500D01*
X910082Y429920D01*
X912164Y434593D01*
X913993Y439826D01*
X917346Y452577D01*
X923137Y476300D01*
X926236Y487426D01*
X932942Y508660D01*
X936091Y517601D01*
X940460Y528675D01*
X942848Y535381D01*
X944676Y541477D01*
X946048Y547065D01*
X946861Y552196D01*
X947115Y556818D01*
X946861Y560984D01*
X946048Y564794D01*
X944626Y568198D01*
X942644Y571296D01*
X940053Y574090D01*
X936853Y576681D01*
X933043Y578967D01*
X928624Y581101D01*
X923544Y583082D01*
X917854Y584911D01*
X913079Y586079D01*
X908303Y586587D01*
X903478Y586486D01*
X898702Y585876D01*
X893927Y584657D01*
X889152Y582879D01*
X884428Y580593D01*
X879805Y577748D01*
X875182Y574395D01*
X870661Y570534D01*
X866241Y566216D01*
X861923Y561340D01*
X857656Y556056D01*
X853592Y550265D01*
X849630Y544017D01*
X845819Y537311D01*
X842162Y530199D01*
X838657Y522681D01*
X835355Y514756D01*
X831037Y503478D01*
X829310Y500481D01*
X827125Y497433D01*
X824433Y494334D01*
X821232Y491134D01*
X817524Y487832D01*
X808482Y481025D01*
X797306Y473709D01*
X783742Y465886D01*
X767842Y457454D01*
X736092Y442112D01*
X725373Y437388D01*
X715975Y433933D01*
X706932Y431596D01*
X697026Y430123D01*
X685190Y429310D01*
X670306Y428904D01*
X634034Y428650D01*
X619861Y428853D01*
X608025Y429412D01*
X597916Y430326D01*
X588924Y431800D01*
X580390Y433781D01*
X571754Y436422D01*
X562254Y439775D01*
X552094Y443890D01*
X542036Y448462D01*
X532079Y453593D01*
X522274Y459232D01*
X512622Y465328D01*
X503123Y471881D01*
X493776Y478891D01*
X484632Y486308D01*
X475742Y494080D01*
X467055Y502310D01*
X458622Y510844D01*
X450494Y519734D01*
X442620Y528929D01*
X435051Y538429D01*
X427837Y548182D01*
X420928Y558241D01*
X414375Y568502D01*
X408178Y579018D01*
X402386Y589737D01*
X397002Y600608D01*
X392023Y611632D01*
X387502Y622858D01*
X383489Y634187D01*
X379882Y645566D01*
X377393Y655269D01*
X375259Y665937D01*
X373430Y677418D01*
X371957Y689610D01*
X370789Y702360D01*
X369976Y715467D01*
X369519Y728827D01*
X369366Y742238D01*
X369570Y755548D01*
X370078Y768654D01*
X370941Y781354D01*
X372110Y793496D01*
X373634Y804976D01*
X375462Y815594D01*
X377647Y825195D01*
X380187Y833628D01*
X384911Y846531D01*
X390042Y859078D01*
X395579Y871118D01*
X401523Y882751D01*
X407822Y893927D01*
X414578Y904646D01*
X421690Y914908D01*
X429209Y924712D01*
X437083Y934008D01*
X445363Y942898D01*
X453999Y951280D01*
X463042Y959205D01*
X472440Y966673D01*
X482193Y973582D01*
X492302Y980084D01*
X502767Y986028D01*
X513791Y991666D01*
X524510Y996594D01*
X534974Y1000861D01*
X545338Y1004366D01*
X555650Y1007262D01*
X566064Y1009497D01*
X576630Y1011123D01*
X587451Y1012088D01*
X598678Y1012494D01*
X610412Y1012342D01*
X622655Y1011631D01*
X635609Y1010361D01*
X648360Y1008684D01*
X660450Y1006652D01*
X672033Y1004214D01*
X683260Y1001217D01*
X694232Y997712D01*
X705154Y993546D01*
X716127Y988771D01*
X727354Y983234D01*
X738886Y976884D01*
X750925Y969721D01*
X763625Y961644D01*
X777087Y952601D01*
X785012Y946962D01*
X792124Y941578D01*
X798372Y936294D01*
X803859Y931214D01*
X808685Y926185D01*
X812749Y921207D01*
X816203Y916228D01*
X822706Y904240D01*
X830376Y891032D01*
X838453Y878840D01*
X842568Y873150D01*
X850950Y862736D01*
X859485Y853643D01*
X867968Y845972D01*
X872185Y842721D01*
X876350Y839825D01*
X880516Y837387D01*
X884580Y835304D01*
X888542Y833678D01*
X892403Y832510D01*
X896213Y831799D01*
X899871Y831545D01*
X903579Y832053D01*
X907846Y833475D01*
X912469Y835710D01*
X917244Y838606D01*
X922121Y842060D01*
X926846Y845819D01*
X931265Y849884D01*
X935278Y854049D01*
X938631Y858164D01*
X941273Y862076D01*
X942949Y865733D01*
X943559Y868934D01*
X942492Y873658D01*
X939596Y881075D01*
X935380Y890168D01*
X927404Y905002D01*
X922019Y916178D01*
X917346Y927608D01*
X913942Y937818D01*
X910793Y950112D01*
X907643Y958596D01*
X903478Y967587D01*
X898296Y977036D01*
X892098Y986942D01*
X884783Y997407D01*
X876452Y1008430D01*
X867054Y1019911D01*
X856589Y1032002D01*
X845058Y1044651D01*
X835050Y1055065D01*
X825906Y1064056D01*
X817118Y1071981D01*
X808329Y1079042D01*
X799084Y1085697D01*
X788924Y1092149D01*
X777544Y1098804D01*
X764387Y1105966D01*
X750519Y1113180D01*
X737616Y1119530D01*
X725474Y1125067D01*
X713892Y1129893D01*
X702716Y1134008D01*
X691692Y1137513D01*
X680618Y1140460D01*
X669340Y1142847D01*
X657606Y1144828D01*
X645210Y1146403D01*
X632002Y1147673D01*
X617728Y1148638D01*
X600202Y1149451D01*
X585520Y1149604D01*
X572465Y1148943D01*
X566216Y1148283D01*
X553669Y1146200D01*
X539953Y1143152D01*
X519938Y1137920D01*
X501142Y1133297D01*
X494436Y1131976D01*
X489356Y1131316D01*
X485749Y1131316D01*
X483565Y1132027D01*
X482650Y1133449D01*
X482854Y1135634D01*
X484022Y1138529D01*
X486054Y1142238D01*
X491286Y1150264D01*
X497332Y1158544D01*
X504850Y1167993D01*
X513435Y1178255D01*
X522884Y1189126D01*
X543255Y1211275D01*
X553567Y1221994D01*
X563575Y1232001D01*
X573024Y1241094D01*
X581609Y1248867D01*
X589076Y1255115D01*
X607263Y1268120D01*
X633018Y1285341D01*
X653999Y1298549D01*
X674979Y1310995D01*
X695756Y1322578D01*
X710946Y1330553D01*
X733094Y1341374D01*
X742492Y1345336D01*
X751230Y1348333D01*
X760069Y1350518D01*
X769772Y1352042D01*
X781100Y1353210D01*
X813053Y1355140D01*
X832459Y1356766D01*
X849071Y1358849D01*
X855675Y1359966D01*
X860856Y1361084D01*
X864311Y1362202D01*
X868730Y1364437D01*
X872794Y1367231D01*
X876503Y1370584D01*
X879906Y1374343D01*
X882903Y1378559D01*
X885596Y1383080D01*
X887933Y1387957D01*
X889914Y1393037D01*
X891489Y1398320D01*
X892759Y1403756D01*
X893622Y1409242D01*
X894130Y1414780D01*
X894283Y1420266D01*
X894029Y1425651D01*
X893419Y1430934D01*
X892454Y1436065D01*
X891032Y1440891D01*
X889304Y1445463D01*
X887120Y1449628D01*
X884580Y1453438D01*
X881583Y1456791D01*
X878230Y1459585D01*
X874471Y1461820D01*
X870305Y1463446D01*
X862939Y1465173D01*
X853033Y1466697D01*
X841044Y1468069D01*
X827379Y1469186D01*
X812546Y1470101D01*
X796899Y1470710D01*
X780897Y1471015D01*
X764997Y1470964D01*
X756767Y1470558D01*
X747979Y1469542D01*
X738581Y1468018D01*
X728675Y1465884D01*
X718312Y1463294D01*
X707593Y1460195D01*
X696518Y1456639D01*
X685139Y1452626D01*
X661720Y1443329D01*
X649782Y1438148D01*
X625703Y1426667D01*
X613714Y1420520D01*
X589889Y1407312D01*
X578256Y1400352D01*
X566826Y1393190D01*
X555650Y1385824D01*
X544880Y1378305D01*
X534416Y1370634D01*
X514502Y1354785D01*
X495604Y1338580D01*
X477875Y1322171D01*
X465175Y1309573D01*
X456946Y1300988D01*
X440994Y1283208D01*
X425551Y1264361D01*
X417880Y1254455D01*
X410311Y1244244D01*
X395173Y1222552D01*
X379882Y1199083D01*
X364236Y1173530D01*
X340461Y1132484D01*
X334975Y1123543D01*
X332841Y1120597D01*
X331114Y1118616D01*
X329793Y1117650D01*
X328930Y1117752D01*
X328422Y1118819D01*
X328371Y1120952D01*
X329438Y1128369D01*
X332130Y1140053D01*
X336448Y1156106D01*
X340969Y1171803D01*
X344881Y1184097D01*
X349199Y1196543D01*
X353872Y1209192D01*
X358902Y1221892D01*
X364286Y1234694D01*
X369976Y1247495D01*
X375970Y1260348D01*
X388670Y1285748D01*
X402234Y1310640D01*
X416458Y1334719D01*
X423773Y1346352D01*
X438658Y1368552D01*
X446125Y1379067D01*
X453694Y1389126D01*
X461213Y1398676D01*
X468731Y1407718D01*
X476148Y1416151D01*
X483514Y1424025D01*
X490778Y1431239D01*
X497941Y1437741D01*
X504951Y1443532D01*
X534162Y1465326D01*
X546506Y1475181D01*
X555802Y1483461D01*
X559460Y1487220D01*
X562610Y1490827D01*
X565251Y1494434D01*
X567537Y1497990D01*
X569468Y1501698D01*
X572820Y1509826D01*
X575818Y1519377D01*
X577799Y1526844D01*
X579170Y1533804D01*
X579983Y1540306D01*
X580186Y1546402D01*
X579831Y1552143D01*
X578815Y1557629D01*
X577138Y1562862D01*
X574852Y1567942D01*
X571855Y1572869D01*
X568198Y1577746D01*
X563829Y1582623D01*
X558800Y1587500D01*
X548894Y1595983D01*
X545388Y1598523D01*
G37*
G36*
X1157833Y916178D02*
G01*
X1146911Y915720D01*
X1136040Y914704D01*
X1125220Y913079D01*
X1114399Y910894D01*
X1103579Y908151D01*
X1092758Y904748D01*
X1081786Y900785D01*
X1070762Y896162D01*
X1059586Y890930D01*
X1048258Y885088D01*
X1036726Y878535D01*
X1024940Y871372D01*
X1012952Y863498D01*
X1000607Y854964D01*
X986231Y844499D01*
X971803Y833374D01*
X959612Y823315D01*
X949706Y814171D01*
X945540Y809904D01*
X941933Y805789D01*
X938834Y801878D01*
X936244Y798068D01*
X934161Y794410D01*
X932586Y790854D01*
X931519Y787400D01*
X930910Y784047D01*
X930808Y780745D01*
X931164Y777494D01*
X931926Y774293D01*
X933196Y771093D01*
X934872Y767892D01*
X937006Y764692D01*
X942543Y758139D01*
X945946Y754735D01*
X952500Y748944D01*
X958646Y744169D01*
X963777Y740968D01*
X967130Y739800D01*
X971245Y741273D01*
X978408Y745286D01*
X987653Y751230D01*
X1007871Y765302D01*
X1026007Y776833D01*
X1047546Y789787D01*
X1075334Y805586D01*
X1105611Y821740D01*
X1116279Y826769D01*
X1125220Y830173D01*
X1133449Y832256D01*
X1141984Y833323D01*
X1151737Y833678D01*
X1170736Y833577D01*
X1182878Y832967D01*
X1193139Y831850D01*
X1202283Y829919D01*
X1210970Y827176D01*
X1219911Y823315D01*
X1230223Y818083D01*
X1235608Y814933D01*
X1245717Y808177D01*
X1255115Y800709D01*
X1259484Y796798D01*
X1263650Y792683D01*
X1271320Y784098D01*
X1274826Y779576D01*
X1281125Y770280D01*
X1283970Y765454D01*
X1288796Y755548D01*
X1290878Y750417D01*
X1294231Y740054D01*
X1295501Y734771D01*
X1296466Y729437D01*
X1297635Y718667D01*
X1297787Y713181D01*
X1297584Y706272D01*
X1296974Y699566D01*
X1295958Y693064D01*
X1294536Y686663D01*
X1292606Y680415D01*
X1290269Y674217D01*
X1287424Y668070D01*
X1284071Y661924D01*
X1280210Y655726D01*
X1275842Y649528D01*
X1270965Y643178D01*
X1265478Y636727D01*
X1261110Y631952D01*
X1256436Y627430D01*
X1251559Y623163D01*
X1246378Y619099D01*
X1241044Y615289D01*
X1235506Y611733D01*
X1229766Y608380D01*
X1223873Y605332D01*
X1211732Y600049D01*
X1205484Y597865D01*
X1199134Y595934D01*
X1192682Y594258D01*
X1186230Y592937D01*
X1179728Y591921D01*
X1173175Y591210D01*
X1166672Y590804D01*
X1160119Y590753D01*
X1153668Y591058D01*
X1147216Y591667D01*
X1138631Y593242D01*
X1129182Y595884D01*
X1119073Y599592D01*
X1108303Y604266D01*
X1096975Y609854D01*
X1085240Y616305D01*
X1073150Y623620D01*
X1060805Y631698D01*
X1048258Y640486D01*
X1035659Y649935D01*
X1023010Y659993D01*
X1010462Y670610D01*
X991108Y687882D01*
X968857Y708202D01*
X939749Y735380D01*
X917397Y756615D01*
X897788Y775665D01*
X879602Y793902D01*
X869492Y804468D01*
X861821Y811377D01*
X852474Y819302D01*
X830275Y836879D01*
X806246Y854659D01*
X794562Y862837D01*
X783691Y870102D01*
X773938Y876147D01*
X762762Y882497D01*
X751433Y888288D01*
X740054Y893470D01*
X728573Y898042D01*
X717092Y902055D01*
X705510Y905459D01*
X693928Y908303D01*
X682345Y910590D01*
X670763Y912317D01*
X659231Y913434D01*
X647750Y913993D01*
X636270Y913993D01*
X624941Y913434D01*
X613664Y912317D01*
X602488Y910640D01*
X591464Y908405D01*
X580593Y905560D01*
X569874Y902208D01*
X559308Y898296D01*
X548944Y893876D01*
X538835Y888847D01*
X528929Y883310D01*
X519226Y877214D01*
X509828Y870559D01*
X500735Y863396D01*
X491896Y855675D01*
X483362Y847445D01*
X475183Y838657D01*
X465988Y827989D01*
X457860Y817676D01*
X450748Y807618D01*
X444550Y797763D01*
X439267Y787908D01*
X434848Y778002D01*
X431190Y767892D01*
X428345Y757529D01*
X426212Y746709D01*
X424738Y735380D01*
X423875Y723392D01*
X423621Y710692D01*
X423773Y694486D01*
X424484Y681736D01*
X426008Y671068D01*
X428599Y661009D01*
X430377Y655828D01*
X435152Y644245D01*
X440690Y632155D01*
X446278Y621639D01*
X452475Y611530D01*
X459232Y601776D01*
X466547Y592480D01*
X474370Y583590D01*
X482650Y575157D01*
X491388Y567131D01*
X500583Y559612D01*
X510133Y552500D01*
X520090Y545947D01*
X530352Y539851D01*
X540918Y534263D01*
X551789Y529183D01*
X562864Y524662D01*
X574192Y520649D01*
X585673Y517245D01*
X597306Y514400D01*
X609041Y512114D01*
X620928Y510438D01*
X632815Y509371D01*
X644753Y508914D01*
X656742Y509066D01*
X668680Y509879D01*
X680516Y511403D01*
X692302Y513537D01*
X703986Y516331D01*
X715518Y519887D01*
X727405Y524306D01*
X740156Y529844D01*
X753211Y536244D01*
X766470Y543356D01*
X779678Y551027D01*
X792683Y559206D01*
X805383Y567740D01*
X817575Y576427D01*
X829056Y585216D01*
X839724Y593953D01*
X849325Y602538D01*
X857808Y610819D01*
X864869Y618642D01*
X870458Y625906D01*
X872591Y629259D01*
X874318Y632460D01*
X875588Y635457D01*
X876350Y638200D01*
X876604Y640740D01*
X875893Y644245D01*
X873912Y648665D01*
X870864Y653694D01*
X866952Y659231D01*
X862431Y664921D01*
X857453Y670610D01*
X847039Y680974D01*
X841959Y685241D01*
X837336Y688543D01*
X833323Y690676D01*
X830122Y691489D01*
X828141Y690880D01*
X824992Y689254D01*
X815898Y683209D01*
X804113Y674268D01*
X776630Y651306D01*
X763219Y640486D01*
X750570Y630885D01*
X738632Y622401D01*
X727252Y615086D01*
X716330Y608787D01*
X705764Y603554D01*
X695452Y599236D01*
X685342Y595884D01*
X675284Y593394D01*
X665175Y591769D01*
X654964Y590905D01*
X644499Y590804D01*
X633679Y591362D01*
X626770Y592074D01*
X619963Y593039D01*
X606907Y595782D01*
X600608Y597560D01*
X594512Y599592D01*
X588518Y601929D01*
X582726Y604469D01*
X571601Y610362D01*
X566267Y613714D01*
X561136Y617321D01*
X556209Y621182D01*
X551434Y625297D01*
X546811Y629666D01*
X542391Y634288D01*
X537006Y640435D01*
X532231Y646277D01*
X528116Y651967D01*
X524611Y657606D01*
X521614Y663194D01*
X519125Y668934D01*
X517143Y674878D01*
X515569Y681126D01*
X514451Y687781D01*
X513638Y694944D01*
X513181Y702716D01*
X513080Y720496D01*
X513435Y728370D01*
X514146Y735228D01*
X515315Y741426D01*
X516991Y747217D01*
X519328Y753059D01*
X522376Y759307D01*
X526237Y766267D01*
X529234Y771093D01*
X532536Y775919D01*
X536244Y780694D01*
X544525Y790092D01*
X553720Y798931D01*
X558596Y803148D01*
X568655Y810869D01*
X578967Y817473D01*
X584098Y820318D01*
X589229Y822807D01*
X594207Y824890D01*
X599084Y826516D01*
X603707Y827735D01*
X608939Y828751D01*
X620877Y830224D01*
X634136Y830986D01*
X647954Y831087D01*
X661670Y830478D01*
X674522Y829157D01*
X680415Y828294D01*
X690575Y826058D01*
X697585Y823518D01*
X709422Y818134D01*
X715619Y814882D01*
X728624Y807212D01*
X742797Y797661D01*
X758444Y786079D01*
X775766Y772210D01*
X795121Y755802D01*
X816813Y736600D01*
X841146Y714400D01*
X868324Y688949D01*
X924306Y635660D01*
X946403Y615594D01*
X967333Y597712D01*
X987247Y581812D01*
X1006398Y567791D01*
X1024991Y555447D01*
X1034135Y549859D01*
X1052372Y539699D01*
X1061466Y535127D01*
X1080109Y526542D01*
X1092149Y521868D01*
X1103477Y518566D01*
X1109319Y517347D01*
X1115466Y516331D01*
X1129385Y514858D01*
X1146606Y513791D01*
X1159764Y513435D01*
X1172718Y513689D01*
X1185367Y514451D01*
X1197813Y515772D01*
X1210005Y517702D01*
X1221892Y520090D01*
X1233474Y523087D01*
X1244803Y526592D01*
X1255776Y530606D01*
X1266393Y535127D01*
X1276705Y540156D01*
X1286611Y545642D01*
X1296162Y551688D01*
X1305306Y558139D01*
X1314094Y565099D01*
X1322425Y572516D01*
X1330299Y580390D01*
X1337767Y588721D01*
X1344777Y597458D01*
X1351330Y606653D01*
X1357376Y616254D01*
X1362913Y626262D01*
X1367942Y636676D01*
X1372412Y647496D01*
X1377848Y662025D01*
X1381556Y673760D01*
X1382877Y679043D01*
X1383842Y684225D01*
X1384503Y689406D01*
X1385112Y700684D01*
X1384808Y714400D01*
X1383995Y729894D01*
X1382522Y743712D01*
X1380286Y756818D01*
X1377238Y769264D01*
X1375410Y775258D01*
X1371092Y786942D01*
X1365808Y798220D01*
X1362862Y803757D01*
X1356106Y814679D01*
X1352397Y820115D01*
X1344117Y830935D01*
X1334719Y841806D01*
X1325524Y851357D01*
X1315923Y860298D01*
X1305864Y868578D01*
X1295450Y876198D01*
X1284630Y883107D01*
X1273352Y889406D01*
X1261719Y895045D01*
X1249629Y900023D01*
X1237132Y904392D01*
X1224229Y908050D01*
X1210919Y911098D01*
X1197152Y913485D01*
X1185722Y914908D01*
X1174445Y915822D01*
G37*
G36*
X4142892Y751992D02*
G01*
X4126687Y751382D01*
X4119168Y750824D01*
X4113580Y749909D01*
X4109618Y748588D01*
X4106926Y746607D01*
X4105249Y743864D01*
X4104233Y740156D01*
X4103014Y730453D01*
X4103065Y726744D01*
X4103928Y724052D01*
X4105859Y722274D01*
X4109212Y721207D01*
X4114292Y720699D01*
X4138168Y720801D01*
X4144873Y720496D01*
X4150766Y719785D01*
X4155998Y718616D01*
X4160570Y717042D01*
X4164533Y714959D01*
X4167936Y712317D01*
X4170883Y709117D01*
X4173423Y705307D01*
X4175607Y700836D01*
X4177487Y695655D01*
X4179112Y689813D01*
X4182922Y674217D01*
X4113784Y674217D01*
X4113784Y640283D01*
X4181703Y640283D01*
X4181703Y493115D01*
X4215638Y493115D01*
X4215638Y639622D01*
X4246930Y641959D01*
X4252620Y642772D01*
X4256938Y643839D01*
X4260088Y645363D01*
X4262374Y647496D01*
X4263898Y650290D01*
X4264863Y653999D01*
X4265574Y658672D01*
X4266031Y663651D01*
X4266031Y667410D01*
X4265269Y670153D01*
X4263491Y672084D01*
X4260494Y673252D01*
X4255973Y673912D01*
X4233062Y674268D01*
X4226661Y674573D01*
X4222089Y675284D01*
X4218990Y676706D01*
X4217111Y678992D01*
X4216095Y682345D01*
X4215739Y687070D01*
X4215333Y698601D01*
X4214317Y704037D01*
X4212691Y709574D01*
X4210507Y715010D01*
X4207814Y720394D01*
X4204716Y725576D01*
X4201210Y730453D01*
X4197299Y735025D01*
X4193184Y739089D01*
X4188764Y742696D01*
X4184192Y745744D01*
X4179519Y748080D01*
X4176471Y749046D01*
X4172407Y749909D01*
X4161891Y751230D01*
X4149445Y751890D01*
G37*
G36*
X2687370Y747826D02*
G01*
X2687370Y583285D01*
X2726994Y583285D01*
X2727096Y593496D01*
X2727452Y602640D01*
X2728010Y610717D01*
X2728823Y617626D01*
X2729788Y623366D01*
X2731008Y627888D01*
X2732430Y631190D01*
X2734056Y633222D01*
X2738678Y636422D01*
X2743708Y638962D01*
X2749042Y640892D01*
X2754528Y642162D01*
X2760116Y642721D01*
X2765653Y642620D01*
X2771038Y641756D01*
X2776118Y640181D01*
X2780334Y638098D01*
X2784144Y635406D01*
X2787548Y632206D01*
X2790596Y628446D01*
X2793238Y624230D01*
X2795473Y619658D01*
X2797403Y614730D01*
X2798927Y609447D01*
X2800096Y603961D01*
X2800959Y598271D01*
X2801416Y592480D01*
X2801569Y586536D01*
X2801366Y580593D01*
X2800858Y574649D01*
X2799994Y568756D01*
X2798826Y563016D01*
X2797352Y557377D01*
X2795625Y551992D01*
X2793542Y546862D01*
X2791155Y542086D01*
X2788513Y537667D01*
X2785567Y533654D01*
X2782366Y530148D01*
X2778912Y527100D01*
X2775204Y524713D01*
X2771190Y522884D01*
X2766974Y521766D01*
X2762453Y521411D01*
X2757627Y521563D01*
X2753207Y522122D01*
X2749194Y523087D01*
X2745587Y524459D01*
X2742336Y526338D01*
X2739440Y528624D01*
X2736850Y531418D01*
X2734665Y534771D01*
X2732735Y538632D01*
X2731109Y543102D01*
X2729788Y548182D01*
X2728722Y553821D01*
X2727960Y560171D01*
X2727401Y567182D01*
X2726994Y583285D01*
X2687370Y583285D01*
X2687370Y493115D01*
X2704338Y493115D01*
X2711805Y493623D01*
X2717139Y495249D01*
X2720289Y497941D01*
X2721305Y501700D01*
X2721762Y505968D01*
X2723692Y507288D01*
X2727960Y505714D01*
X2740050Y498297D01*
X2744774Y495858D01*
X2749499Y493877D01*
X2754223Y492251D01*
X2758897Y491083D01*
X2763621Y490270D01*
X2768244Y489864D01*
X2772816Y489813D01*
X2777388Y490118D01*
X2781858Y490829D01*
X2786227Y491896D01*
X2790494Y493268D01*
X2794711Y494995D01*
X2798775Y497027D01*
X2802737Y499414D01*
X2806547Y502107D01*
X2810205Y505104D01*
X2813710Y508406D01*
X2817063Y511962D01*
X2820212Y515823D01*
X2823210Y519938D01*
X2825953Y524306D01*
X2828493Y528980D01*
X2830830Y533857D01*
X2832963Y538988D01*
X2834792Y544322D01*
X2836418Y549910D01*
X2837738Y555701D01*
X2838805Y561695D01*
X2839567Y567842D01*
X2840024Y574243D01*
X2840177Y580796D01*
X2840024Y587502D01*
X2839567Y594004D01*
X2838805Y600354D01*
X2837789Y606501D01*
X2836468Y612444D01*
X2833116Y623722D01*
X2831033Y629056D01*
X2828747Y634136D01*
X2826258Y639013D01*
X2823565Y643585D01*
X2820670Y647903D01*
X2817622Y651967D01*
X2814370Y655777D01*
X2810967Y659282D01*
X2807411Y662432D01*
X2803753Y665327D01*
X2799943Y667918D01*
X2795981Y670153D01*
X2791968Y672084D01*
X2787853Y673658D01*
X2783636Y674827D01*
X2779369Y675690D01*
X2775051Y676148D01*
X2770632Y676249D01*
X2766212Y675944D01*
X2761792Y675284D01*
X2757322Y674166D01*
X2752852Y672642D01*
X2748381Y670661D01*
X2743962Y668274D01*
X2739542Y665429D01*
X2726994Y656590D01*
X2726994Y747826D01*
G37*
G36*
X4588459Y739952D02*
G01*
X4583582Y739698D01*
X4579010Y738327D01*
X4574895Y736142D01*
X4571492Y733145D01*
X4569002Y729488D01*
X4567580Y725424D01*
X4567478Y720953D01*
X4568850Y716280D01*
X4571847Y711504D01*
X4575200Y708710D01*
X4579975Y706272D01*
X4585563Y704291D01*
X4591456Y702818D01*
X4597044Y702056D01*
X4601768Y702056D01*
X4605020Y702970D01*
X4606239Y704900D01*
X4607153Y708964D01*
X4609388Y715467D01*
X4609846Y719429D01*
X4608830Y724103D01*
X4606493Y728878D01*
X4603038Y733196D01*
X4598416Y736854D01*
X4593488Y739089D01*
G37*
G36*
X3977182Y739952D02*
G01*
X3972255Y739698D01*
X3967683Y738327D01*
X3963568Y736142D01*
X3960164Y733145D01*
X3957675Y729488D01*
X3956253Y725424D01*
X3956151Y720953D01*
X3957523Y716280D01*
X3960571Y711504D01*
X3963873Y708710D01*
X3968648Y706272D01*
X3974236Y704291D01*
X3980129Y702818D01*
X3985717Y702056D01*
X3990441Y702056D01*
X3993692Y702970D01*
X3994912Y704900D01*
X3995826Y708964D01*
X3998061Y715467D01*
X3998518Y719429D01*
X3997502Y724103D01*
X3995165Y728878D01*
X3991711Y733196D01*
X3987088Y736854D01*
X3982161Y739089D01*
G37*
G36*
X3569614Y739952D02*
G01*
X3564737Y739698D01*
X3560114Y738327D01*
X3556050Y736142D01*
X3552647Y733145D01*
X3550158Y729488D01*
X3548735Y725424D01*
X3548583Y720953D01*
X3549954Y716280D01*
X3553002Y711504D01*
X3556355Y708710D01*
X3561079Y706272D01*
X3566718Y704291D01*
X3572611Y702818D01*
X3578199Y702056D01*
X3582924Y702056D01*
X3586124Y702970D01*
X3587343Y704900D01*
X3588308Y708964D01*
X3590493Y715467D01*
X3591001Y719429D01*
X3589934Y724103D01*
X3587597Y728878D01*
X3584143Y733196D01*
X3579520Y736854D01*
X3574643Y739089D01*
G37*
G36*
X2550769Y739952D02*
G01*
X2545842Y739698D01*
X2541270Y738327D01*
X2537155Y736142D01*
X2533751Y733145D01*
X2531262Y729488D01*
X2529840Y725424D01*
X2529738Y720953D01*
X2531110Y716280D01*
X2534158Y711504D01*
X2537460Y708710D01*
X2542235Y706272D01*
X2547823Y704291D01*
X2553716Y702818D01*
X2559304Y702056D01*
X2564028Y702056D01*
X2567279Y702970D01*
X2568498Y704900D01*
X2569413Y708964D01*
X2571648Y715467D01*
X2572105Y719429D01*
X2571089Y724103D01*
X2568752Y728878D01*
X2565298Y733196D01*
X2560675Y736854D01*
X2555748Y739089D01*
G37*
G36*
X2143201Y739952D02*
G01*
X2138324Y739698D01*
X2133701Y738327D01*
X2129637Y736142D01*
X2126234Y733145D01*
X2123744Y729488D01*
X2122322Y725424D01*
X2122170Y720953D01*
X2123541Y716280D01*
X2126589Y711504D01*
X2129942Y708710D01*
X2134666Y706272D01*
X2140305Y704291D01*
X2146198Y702818D01*
X2151786Y702056D01*
X2156510Y702056D01*
X2159711Y702970D01*
X2160930Y704900D01*
X2161895Y708964D01*
X2164080Y715467D01*
X2164588Y719429D01*
X2163521Y724103D01*
X2161184Y728878D01*
X2157780Y733196D01*
X2153107Y736854D01*
X2148230Y739089D01*
G37*
G36*
X3386429Y713841D02*
G01*
X3380130Y713790D01*
X3375355Y713435D01*
X3371850Y712571D01*
X3369411Y711047D01*
X3367887Y708609D01*
X3367024Y705104D01*
X3366668Y700328D01*
X3366617Y674217D01*
X3325266Y674217D01*
X3317595Y673963D01*
X3312058Y673303D01*
X3308350Y672033D01*
X3306064Y670001D01*
X3304895Y667004D01*
X3304438Y662787D01*
X3304438Y651713D01*
X3304895Y647496D01*
X3306064Y644499D01*
X3308350Y642467D01*
X3312058Y641197D01*
X3317595Y640537D01*
X3335477Y640283D01*
X3366617Y640283D01*
X3366515Y575818D01*
X3365804Y557530D01*
X3365093Y550062D01*
X3364026Y543610D01*
X3362655Y538073D01*
X3360928Y533501D01*
X3358743Y529742D01*
X3356101Y526796D01*
X3352952Y524611D01*
X3349294Y523087D01*
X3345027Y522173D01*
X3340100Y521817D01*
X3334512Y521970D01*
X3328263Y522579D01*
X3309975Y524967D01*
X3303066Y524256D01*
X3299155Y520954D01*
X3296716Y514553D01*
X3295446Y509320D01*
X3294887Y505256D01*
X3295345Y502208D01*
X3297123Y499821D01*
X3300425Y497890D01*
X3305556Y496265D01*
X3312820Y494588D01*
X3329127Y491540D01*
X3341420Y490067D01*
X3347110Y489762D01*
X3352444Y489762D01*
X3357524Y490016D01*
X3362299Y490626D01*
X3366820Y491540D01*
X3371037Y492759D01*
X3374948Y494284D01*
X3378657Y496163D01*
X3382060Y498398D01*
X3385210Y500989D01*
X3388106Y503935D01*
X3390798Y507238D01*
X3393236Y510895D01*
X3395421Y514908D01*
X3397402Y519379D01*
X3399180Y524154D01*
X3402076Y535025D01*
X3404158Y547471D01*
X3405479Y561644D01*
X3406140Y577596D01*
X3406241Y640283D01*
X3435959Y640334D01*
X3441446Y640689D01*
X3445408Y641400D01*
X3448202Y642721D01*
X3449980Y644855D01*
X3450996Y647852D01*
X3451402Y651916D01*
X3451402Y662584D01*
X3450996Y666648D01*
X3449980Y669696D01*
X3448202Y671779D01*
X3445408Y673100D01*
X3441446Y673811D01*
X3435959Y674166D01*
X3421532Y674268D01*
X3415995Y674624D01*
X3411982Y675386D01*
X3409238Y676910D01*
X3407562Y679297D01*
X3406648Y682802D01*
X3406292Y687628D01*
X3406140Y700328D01*
X3405784Y705104D01*
X3404920Y708609D01*
X3403396Y711047D01*
X3400958Y712571D01*
X3397453Y713435D01*
X3392678Y713790D01*
G37*
G36*
X1960016Y713841D02*
G01*
X1953717Y713790D01*
X1948942Y713435D01*
X1945436Y712571D01*
X1942998Y711047D01*
X1941474Y708609D01*
X1940610Y705104D01*
X1940255Y700328D01*
X1940204Y674217D01*
X1898853Y674217D01*
X1891182Y673963D01*
X1885645Y673303D01*
X1881936Y672033D01*
X1879650Y670001D01*
X1878482Y667004D01*
X1878025Y662787D01*
X1878025Y651713D01*
X1878482Y647496D01*
X1879650Y644499D01*
X1881936Y642467D01*
X1885645Y641197D01*
X1891182Y640537D01*
X1909064Y640283D01*
X1940204Y640283D01*
X1940102Y575818D01*
X1939391Y557530D01*
X1938680Y550062D01*
X1937613Y543610D01*
X1936242Y538073D01*
X1934514Y533501D01*
X1932330Y529742D01*
X1929688Y526796D01*
X1926539Y524611D01*
X1922881Y523087D01*
X1918614Y522173D01*
X1913686Y521817D01*
X1908098Y521970D01*
X1901850Y522579D01*
X1883562Y524967D01*
X1876653Y524256D01*
X1872742Y520954D01*
X1870303Y514553D01*
X1869033Y509320D01*
X1868474Y505256D01*
X1868932Y502208D01*
X1870710Y499821D01*
X1874012Y497890D01*
X1879142Y496265D01*
X1886407Y494588D01*
X1902714Y491540D01*
X1915007Y490067D01*
X1920697Y489762D01*
X1926031Y489762D01*
X1931111Y490016D01*
X1935886Y490626D01*
X1940407Y491540D01*
X1944624Y492759D01*
X1948535Y494284D01*
X1952243Y496163D01*
X1955647Y498398D01*
X1958797Y500989D01*
X1961692Y503935D01*
X1964385Y507238D01*
X1966823Y510895D01*
X1969007Y514908D01*
X1970989Y519379D01*
X1972767Y524154D01*
X1975662Y535025D01*
X1977745Y547471D01*
X1979066Y561644D01*
X1979726Y577596D01*
X1979828Y640283D01*
X2009546Y640334D01*
X2015032Y640689D01*
X2018995Y641400D01*
X2021789Y642721D01*
X2023567Y644855D01*
X2024583Y647852D01*
X2024989Y651916D01*
X2024989Y662584D01*
X2024583Y666648D01*
X2023567Y669696D01*
X2021789Y671779D01*
X2018995Y673100D01*
X2015032Y673811D01*
X2009546Y674166D01*
X1995119Y674268D01*
X1989582Y674624D01*
X1985568Y675386D01*
X1982825Y676910D01*
X1981149Y679297D01*
X1980234Y682802D01*
X1979879Y687628D01*
X1979726Y700328D01*
X1979371Y705104D01*
X1978507Y708609D01*
X1976983Y711047D01*
X1974545Y712571D01*
X1971039Y713435D01*
X1966264Y713790D01*
G37*
G36*
X4566615Y674217D02*
G01*
X4566615Y527050D01*
X4532985Y526999D01*
X4526788Y526694D01*
X4522266Y525983D01*
X4519218Y524713D01*
X4517237Y522630D01*
X4516170Y519633D01*
X4515764Y515518D01*
X4515662Y493115D01*
X4662830Y493115D01*
X4662728Y515569D01*
X4662322Y519734D01*
X4661154Y522732D01*
X4659071Y524814D01*
X4655667Y526084D01*
X4650638Y526745D01*
X4634534Y527050D01*
X4606239Y527050D01*
X4606239Y640283D01*
X4643678Y640334D01*
X4650638Y640588D01*
X4655667Y641248D01*
X4659071Y642518D01*
X4661154Y644601D01*
X4662322Y647598D01*
X4662728Y651764D01*
X4662830Y674217D01*
G37*
G36*
X4447743Y674217D02*
G01*
X4439412Y673709D01*
X4434230Y671830D01*
X4431538Y668223D01*
X4430776Y662432D01*
X4430776Y650646D01*
X4411675Y662432D01*
X4406290Y665480D01*
X4400753Y668070D01*
X4395114Y670102D01*
X4389424Y671728D01*
X4383735Y672846D01*
X4378045Y673506D01*
X4372356Y673760D01*
X4366768Y673506D01*
X4361332Y672896D01*
X4355998Y671830D01*
X4350816Y670306D01*
X4345889Y668426D01*
X4341215Y666140D01*
X4336796Y663448D01*
X4332681Y660400D01*
X4328972Y656945D01*
X4325620Y653135D01*
X4322673Y648970D01*
X4320184Y644448D01*
X4318152Y639622D01*
X4317288Y636574D01*
X4315714Y627532D01*
X4314342Y615188D01*
X4313174Y600303D01*
X4312361Y583742D01*
X4311954Y566216D01*
X4311904Y493115D01*
X4351528Y493115D01*
X4351528Y567740D01*
X4351883Y586232D01*
X4352645Y601421D01*
X4354017Y613562D01*
X4354982Y618642D01*
X4356150Y623062D01*
X4357522Y626872D01*
X4359097Y630174D01*
X4360976Y632968D01*
X4363110Y635254D01*
X4365498Y637184D01*
X4368241Y638657D01*
X4371238Y639826D01*
X4374642Y640689D01*
X4382465Y641705D01*
X4392371Y641959D01*
X4397349Y641807D01*
X4401870Y641350D01*
X4405985Y640638D01*
X4409744Y639572D01*
X4413097Y638098D01*
X4416044Y636270D01*
X4418685Y633933D01*
X4421022Y631139D01*
X4423003Y627786D01*
X4424730Y623874D01*
X4426204Y619404D01*
X4427423Y614273D01*
X4428439Y608431D01*
X4429810Y594664D01*
X4430522Y577697D01*
X4430776Y557326D01*
X4430776Y493115D01*
X4464710Y493115D01*
X4464710Y674217D01*
G37*
G36*
X3955287Y674217D02*
G01*
X3955287Y527050D01*
X3921658Y526999D01*
X3915460Y526694D01*
X3910990Y525983D01*
X3907891Y524713D01*
X3905910Y522630D01*
X3904894Y519633D01*
X3904437Y515518D01*
X3904335Y493115D01*
X4051503Y493115D01*
X4051452Y515569D01*
X4050995Y519734D01*
X4049826Y522732D01*
X4047744Y524814D01*
X4044340Y526084D01*
X4039311Y526745D01*
X4023207Y527050D01*
X3994912Y527050D01*
X3994912Y640283D01*
X4032351Y640334D01*
X4039311Y640588D01*
X4044340Y641248D01*
X4047744Y642518D01*
X4049826Y644601D01*
X4050995Y647598D01*
X4051452Y651764D01*
X4051503Y674217D01*
G37*
G36*
X3836415Y674217D02*
G01*
X3828084Y673709D01*
X3822903Y671830D01*
X3820210Y668223D01*
X3819448Y662432D01*
X3819448Y650646D01*
X3800348Y662432D01*
X3794963Y665480D01*
X3789426Y668070D01*
X3783837Y670102D01*
X3778148Y671728D01*
X3772408Y672846D01*
X3766718Y673506D01*
X3761028Y673760D01*
X3755491Y673506D01*
X3750005Y672896D01*
X3744671Y671830D01*
X3739489Y670306D01*
X3734562Y668426D01*
X3729888Y666140D01*
X3725468Y663448D01*
X3721404Y660400D01*
X3717645Y656945D01*
X3714292Y653135D01*
X3711346Y648970D01*
X3708857Y644448D01*
X3706825Y639622D01*
X3705199Y632510D01*
X3703675Y621741D01*
X3702405Y608025D01*
X3701440Y592175D01*
X3700779Y575005D01*
X3700576Y557326D01*
X3700576Y493115D01*
X3740200Y493115D01*
X3740200Y567740D01*
X3740556Y586232D01*
X3741318Y601421D01*
X3742690Y613562D01*
X3743655Y618642D01*
X3744823Y623062D01*
X3746195Y626872D01*
X3747770Y630174D01*
X3749649Y632968D01*
X3751783Y635254D01*
X3754170Y637184D01*
X3756914Y638657D01*
X3759911Y639826D01*
X3763314Y640689D01*
X3771137Y641705D01*
X3781044Y641959D01*
X3786022Y641807D01*
X3790594Y641350D01*
X3794709Y640638D01*
X3798417Y639572D01*
X3801770Y638098D01*
X3804716Y636270D01*
X3807358Y633933D01*
X3809695Y631139D01*
X3811727Y627786D01*
X3813454Y623874D01*
X3814876Y619404D01*
X3816096Y614273D01*
X3817112Y608431D01*
X3817924Y601929D01*
X3818940Y586587D01*
X3819398Y567944D01*
X3819448Y493115D01*
X3853383Y493115D01*
X3853383Y674217D01*
G37*
G36*
X3547719Y674217D02*
G01*
X3547719Y527050D01*
X3514140Y526999D01*
X3507943Y526694D01*
X3503422Y525983D01*
X3500323Y524713D01*
X3498392Y522630D01*
X3497326Y519633D01*
X3496868Y515518D01*
X3496767Y493115D01*
X3643985Y493115D01*
X3643884Y515569D01*
X3643426Y519734D01*
X3642309Y522732D01*
X3640175Y524814D01*
X3636772Y526084D01*
X3631742Y526745D01*
X3615639Y527050D01*
X3587343Y527050D01*
X3587343Y640283D01*
X3624834Y640334D01*
X3631742Y640588D01*
X3636772Y641248D01*
X3640175Y642518D01*
X3642309Y644601D01*
X3643426Y647598D01*
X3643884Y651764D01*
X3643985Y674217D01*
G37*
G36*
X2528874Y674217D02*
G01*
X2528874Y527050D01*
X2495245Y526999D01*
X2489047Y526694D01*
X2484577Y525983D01*
X2481478Y524713D01*
X2479497Y522630D01*
X2478481Y519633D01*
X2478024Y515518D01*
X2477922Y493115D01*
X2625090Y493115D01*
X2625039Y515569D01*
X2624582Y519734D01*
X2623413Y522732D01*
X2621330Y524814D01*
X2617927Y526084D01*
X2612898Y526745D01*
X2596794Y527050D01*
X2568498Y527050D01*
X2568498Y640283D01*
X2605938Y640334D01*
X2612898Y640588D01*
X2617927Y641248D01*
X2621330Y642518D01*
X2623413Y644601D01*
X2624582Y647598D01*
X2625039Y651764D01*
X2625090Y674217D01*
G37*
G36*
X2279802Y674217D02*
G01*
X2279802Y582320D01*
X2312924Y582320D01*
X2312974Y590092D01*
X2313381Y597662D01*
X2314194Y604875D01*
X2315362Y611581D01*
X2316886Y617626D01*
X2318766Y622858D01*
X2321052Y627126D01*
X2323693Y630224D01*
X2328214Y633933D01*
X2332685Y637082D01*
X2337104Y639673D01*
X2341473Y641705D01*
X2345690Y643178D01*
X2349855Y644144D01*
X2353919Y644550D01*
X2357831Y644499D01*
X2361590Y643940D01*
X2365248Y642823D01*
X2368702Y641299D01*
X2372004Y639267D01*
X2375103Y636727D01*
X2377998Y633780D01*
X2380691Y630377D01*
X2383129Y626516D01*
X2385364Y622249D01*
X2387295Y617524D01*
X2389022Y612394D01*
X2390394Y606907D01*
X2391511Y600964D01*
X2392375Y594664D01*
X2392832Y588010D01*
X2393035Y580948D01*
X2392730Y573582D01*
X2391918Y566572D01*
X2390597Y559968D01*
X2388768Y553770D01*
X2386533Y548030D01*
X2383942Y542747D01*
X2380945Y537972D01*
X2377592Y533704D01*
X2373985Y529996D01*
X2370124Y526897D01*
X2366010Y524357D01*
X2361742Y522478D01*
X2357323Y521208D01*
X2352751Y520598D01*
X2348128Y520750D01*
X2343454Y521563D01*
X2338781Y523189D01*
X2334158Y525576D01*
X2329586Y528726D01*
X2325116Y532739D01*
X2322372Y536244D01*
X2319985Y540816D01*
X2317902Y546354D01*
X2316226Y552653D01*
X2314854Y559562D01*
X2313838Y566877D01*
X2313178Y574548D01*
X2312924Y582320D01*
X2279802Y582320D01*
X2280005Y531825D01*
X2280412Y511098D01*
X2281224Y493776D01*
X2282545Y479551D01*
X2283409Y473456D01*
X2284476Y468020D01*
X2285695Y463092D01*
X2287066Y458724D01*
X2288692Y454812D01*
X2290521Y451358D01*
X2292604Y448208D01*
X2294940Y445465D01*
X2297531Y442925D01*
X2300376Y440639D01*
X2306980Y436575D01*
X2319274Y430885D01*
X2324760Y428904D01*
X2330500Y427380D01*
X2336546Y426262D01*
X2342692Y425500D01*
X2349042Y425094D01*
X2355392Y425094D01*
X2361793Y425399D01*
X2368143Y426008D01*
X2374392Y426923D01*
X2380437Y428091D01*
X2386279Y429514D01*
X2391816Y431190D01*
X2396998Y433070D01*
X2401824Y435152D01*
X2406142Y437438D01*
X2410002Y439826D01*
X2413203Y442366D01*
X2415844Y445058D01*
X2417724Y447801D01*
X2418892Y450646D01*
X2419197Y453542D01*
X2418689Y456539D01*
X2417216Y459485D01*
X2414778Y462432D01*
X2409393Y467106D01*
X2404414Y468630D01*
X2398014Y467106D01*
X2382012Y459536D01*
X2375814Y457250D01*
X2369718Y455625D01*
X2363825Y454609D01*
X2358085Y454304D01*
X2352598Y454558D01*
X2347366Y455472D01*
X2342388Y456996D01*
X2337714Y459130D01*
X2333396Y461822D01*
X2329434Y465074D01*
X2325878Y468934D01*
X2322728Y473354D01*
X2319985Y478282D01*
X2317750Y483768D01*
X2316022Y489762D01*
X2314244Y498398D01*
X2314549Y502767D01*
X2317242Y503732D01*
X2322830Y501954D01*
X2329484Y499364D01*
X2335885Y497230D01*
X2342032Y495452D01*
X2347976Y494080D01*
X2353665Y493064D01*
X2359152Y492455D01*
X2364486Y492251D01*
X2369616Y492404D01*
X2374544Y493014D01*
X2379319Y493979D01*
X2383942Y495401D01*
X2388412Y497179D01*
X2392730Y499414D01*
X2396947Y502005D01*
X2401011Y505053D01*
X2404973Y508508D01*
X2408783Y512368D01*
X2412542Y516635D01*
X2416251Y521360D01*
X2419858Y526491D01*
X2422702Y531266D01*
X2425242Y536397D01*
X2427478Y541832D01*
X2429306Y547522D01*
X2430830Y553415D01*
X2431999Y559562D01*
X2432812Y565810D01*
X2433320Y572211D01*
X2433523Y578713D01*
X2433421Y585216D01*
X2433015Y591769D01*
X2431237Y604774D01*
X2429916Y611124D01*
X2428290Y617372D01*
X2426360Y623468D01*
X2424176Y629361D01*
X2421737Y635000D01*
X2418994Y640384D01*
X2415997Y645464D01*
X2412746Y650189D01*
X2409240Y654507D01*
X2405430Y658469D01*
X2401417Y661974D01*
X2396388Y665378D01*
X2390648Y668223D01*
X2384399Y670560D01*
X2377795Y672287D01*
X2370886Y673506D01*
X2363825Y674116D01*
X2356815Y674116D01*
X2349906Y673557D01*
X2343302Y672439D01*
X2337054Y670712D01*
X2331364Y668375D01*
X2326335Y665429D01*
X2319578Y660958D01*
X2315819Y659434D01*
X2314143Y660958D01*
X2313787Y665429D01*
X2312771Y669340D01*
X2309622Y672084D01*
X2304338Y673709D01*
X2296820Y674217D01*
G37*
G36*
X2121306Y674217D02*
G01*
X2121306Y527050D01*
X2087727Y526999D01*
X2081530Y526694D01*
X2077008Y525983D01*
X2073910Y524713D01*
X2071979Y522630D01*
X2070912Y519633D01*
X2070455Y515518D01*
X2070404Y493115D01*
X2217572Y493115D01*
X2217470Y515569D01*
X2217013Y519734D01*
X2215896Y522732D01*
X2213762Y524814D01*
X2210358Y526084D01*
X2205329Y526745D01*
X2189226Y527050D01*
X2160930Y527050D01*
X2160930Y640283D01*
X2198420Y640334D01*
X2205329Y640588D01*
X2210358Y641248D01*
X2213762Y642518D01*
X2215896Y644601D01*
X2217013Y647598D01*
X2217470Y651764D01*
X2217572Y674217D01*
G37*
G36*
X1742643Y673912D02*
G01*
X1730908Y673354D01*
X1719325Y671576D01*
X1713687Y670306D01*
X1708150Y668782D01*
X1702816Y666953D01*
X1697685Y664921D01*
X1692757Y662635D01*
X1688084Y660146D01*
X1683715Y657402D01*
X1679651Y654456D01*
X1675993Y651357D01*
X1672691Y648055D01*
X1669796Y644550D01*
X1667357Y640892D01*
X1665427Y637133D01*
X1664004Y633171D01*
X1663141Y629056D01*
X1662836Y624840D01*
X1663496Y621842D01*
X1665427Y619607D01*
X1668373Y618083D01*
X1672132Y617220D01*
X1676603Y617067D01*
X1681480Y617474D01*
X1686560Y618540D01*
X1691741Y620166D01*
X1696821Y622300D01*
X1701495Y624992D01*
X1705660Y628142D01*
X1712823Y635711D01*
X1717141Y638962D01*
X1721967Y641604D01*
X1727149Y643585D01*
X1732584Y644906D01*
X1738172Y645668D01*
X1743760Y645871D01*
X1749298Y645464D01*
X1754581Y644448D01*
X1759610Y642975D01*
X1764131Y640943D01*
X1768093Y638352D01*
X1771396Y635304D01*
X1773885Y631748D01*
X1775510Y627735D01*
X1776018Y623265D01*
X1775460Y618693D01*
X1773682Y614578D01*
X1770684Y610920D01*
X1766265Y607669D01*
X1760423Y604723D01*
X1753057Y602081D01*
X1744116Y599744D01*
X1725574Y595934D01*
X1718056Y594106D01*
X1711045Y592074D01*
X1704441Y589788D01*
X1698345Y587298D01*
X1692706Y584606D01*
X1687575Y581710D01*
X1682902Y578612D01*
X1678686Y575310D01*
X1675028Y571804D01*
X1671828Y568147D01*
X1669135Y564337D01*
X1666951Y560324D01*
X1665274Y556158D01*
X1664106Y551840D01*
X1663446Y547319D01*
X1663344Y542696D01*
X1663801Y537921D01*
X1664766Y533044D01*
X1666290Y527964D01*
X1668119Y523595D01*
X1670456Y519531D01*
X1673250Y515721D01*
X1676450Y512165D01*
X1680006Y508914D01*
X1683969Y505917D01*
X1688236Y503224D01*
X1692859Y500786D01*
X1697685Y498652D01*
X1702765Y496773D01*
X1708099Y495198D01*
X1713534Y493877D01*
X1719173Y492861D01*
X1724914Y492099D01*
X1730705Y491642D01*
X1742490Y491591D01*
X1748383Y491947D01*
X1754225Y492607D01*
X1760016Y493522D01*
X1771243Y496265D01*
X1776628Y498043D01*
X1781810Y500126D01*
X1786788Y502462D01*
X1791512Y505104D01*
X1795932Y508050D01*
X1800047Y511251D01*
X1803806Y514705D01*
X1807210Y518464D01*
X1810207Y522528D01*
X1812747Y526897D01*
X1816506Y534263D01*
X1819046Y539800D01*
X1820265Y543864D01*
X1820164Y546608D01*
X1818538Y548335D01*
X1815287Y549249D01*
X1810410Y549656D01*
X1803755Y549706D01*
X1795272Y548843D01*
X1787753Y546252D01*
X1781048Y541832D01*
X1771040Y531317D01*
X1766366Y527812D01*
X1761185Y525018D01*
X1755597Y522884D01*
X1749653Y521411D01*
X1743608Y520547D01*
X1737512Y520395D01*
X1731518Y520801D01*
X1725777Y521817D01*
X1720342Y523443D01*
X1715414Y525627D01*
X1711096Y528320D01*
X1707489Y531622D01*
X1704797Y535381D01*
X1703070Y539699D01*
X1702460Y544474D01*
X1702714Y546811D01*
X1703578Y549046D01*
X1705051Y551230D01*
X1707235Y553313D01*
X1710182Y555396D01*
X1713941Y557479D01*
X1718564Y559562D01*
X1730705Y564032D01*
X1747012Y568960D01*
X1763217Y573582D01*
X1769211Y575665D01*
X1774850Y577951D01*
X1780082Y580440D01*
X1785010Y583133D01*
X1789531Y585927D01*
X1793646Y588924D01*
X1797405Y592023D01*
X1800809Y595274D01*
X1803806Y598576D01*
X1806397Y602030D01*
X1808581Y605586D01*
X1810359Y609193D01*
X1811731Y612851D01*
X1812747Y616559D01*
X1813306Y620268D01*
X1813407Y624027D01*
X1813153Y627786D01*
X1812442Y631545D01*
X1811274Y635304D01*
X1809699Y639013D01*
X1807667Y642670D01*
X1805228Y646226D01*
X1802333Y649782D01*
X1798929Y653237D01*
X1795119Y656539D01*
X1790852Y659790D01*
X1786077Y662889D01*
X1781302Y665530D01*
X1776272Y667816D01*
X1771040Y669696D01*
X1765604Y671220D01*
X1760016Y672388D01*
X1754276Y673201D01*
X1748485Y673709D01*
G37*
G36*
X3164281Y673760D02*
G01*
X3157677Y673404D01*
X3151174Y672541D01*
X3144774Y671271D01*
X3138525Y669594D01*
X3132531Y667410D01*
X3126841Y664870D01*
X3121456Y661873D01*
X3116529Y658418D01*
X3112058Y654608D01*
X3108502Y650697D01*
X3104997Y645871D01*
X3101594Y640283D01*
X3098342Y634085D01*
X3095244Y627430D01*
X3092450Y620369D01*
X3089960Y613054D01*
X3087911Y606145D01*
X3124911Y606145D01*
X3125165Y609295D01*
X3126282Y613359D01*
X3128264Y618845D01*
X3130854Y624332D01*
X3133750Y629208D01*
X3136544Y632815D01*
X3140964Y636625D01*
X3145840Y639572D01*
X3151174Y641654D01*
X3156813Y642874D01*
X3162604Y643280D01*
X3168548Y642823D01*
X3174492Y641604D01*
X3180334Y639521D01*
X3186023Y636727D01*
X3191357Y633120D01*
X3196386Y628802D01*
X3200857Y623722D01*
X3204108Y619252D01*
X3206445Y615340D01*
X3207766Y612038D01*
X3208070Y609244D01*
X3207258Y606907D01*
X3205226Y605028D01*
X3202025Y603504D01*
X3197504Y602386D01*
X3191611Y601573D01*
X3184347Y601014D01*
X3175558Y600710D01*
X3151479Y600659D01*
X3141014Y600913D01*
X3133598Y601421D01*
X3128721Y602335D01*
X3125978Y603910D01*
X3124911Y606145D01*
X3087911Y606145D01*
X3086049Y598322D01*
X3084677Y591108D01*
X3083864Y584200D01*
X3083560Y577748D01*
X3084118Y576986D01*
X3085744Y576275D01*
X3091840Y574954D01*
X3101390Y573887D01*
X3113887Y573074D01*
X3128873Y572516D01*
X3170021Y572211D01*
X3187039Y571754D01*
X3193237Y571296D01*
X3198114Y570687D01*
X3201822Y569874D01*
X3204514Y568858D01*
X3206292Y567588D01*
X3207410Y566064D01*
X3207969Y564235D01*
X3208121Y562102D01*
X3207664Y556971D01*
X3206343Y552094D01*
X3204260Y547573D01*
X3201466Y543306D01*
X3198063Y539445D01*
X3194050Y535940D01*
X3189528Y532790D01*
X3184601Y530047D01*
X3179267Y527761D01*
X3173679Y525881D01*
X3167888Y524459D01*
X3161893Y523544D01*
X3155848Y523138D01*
X3149803Y523240D01*
X3143758Y523900D01*
X3137916Y525119D01*
X3132226Y526948D01*
X3126790Y529336D01*
X3121710Y532384D01*
X3112008Y539953D01*
X3107994Y540918D01*
X3103880Y538937D01*
X3098647Y533755D01*
X3093770Y527710D01*
X3092551Y523138D01*
X3095193Y518312D01*
X3102000Y511556D01*
X3106216Y508000D01*
X3110788Y504799D01*
X3115665Y501904D01*
X3120898Y499364D01*
X3126333Y497179D01*
X3132023Y495350D01*
X3137916Y493826D01*
X3143910Y492658D01*
X3150057Y491845D01*
X3156254Y491337D01*
X3162503Y491235D01*
X3168700Y491439D01*
X3174898Y492048D01*
X3180994Y492963D01*
X3187039Y494284D01*
X3192881Y495960D01*
X3198520Y497941D01*
X3203956Y500329D01*
X3209137Y503123D01*
X3214014Y506222D01*
X3218535Y509625D01*
X3222701Y513334D01*
X3226612Y517347D01*
X3230168Y521614D01*
X3233420Y526084D01*
X3236366Y530809D01*
X3239008Y535736D01*
X3241344Y540766D01*
X3243326Y546049D01*
X3245053Y551383D01*
X3246424Y556869D01*
X3247542Y562457D01*
X3248355Y568147D01*
X3248812Y573836D01*
X3249015Y579577D01*
X3248914Y585368D01*
X3247745Y596849D01*
X3246729Y602538D01*
X3245459Y608177D01*
X3243834Y613714D01*
X3241903Y619150D01*
X3239719Y624433D01*
X3237230Y629615D01*
X3234436Y634593D01*
X3231337Y639419D01*
X3227984Y644042D01*
X3224276Y648411D01*
X3220364Y652526D01*
X3216097Y656437D01*
X3211576Y659993D01*
X3206750Y663295D01*
X3201466Y666242D01*
X3195828Y668680D01*
X3189884Y670610D01*
X3183686Y672134D01*
X3177336Y673150D01*
X3170834Y673658D01*
G37*
D10*
X2707408Y2872046D02*
G01*
X2781300Y2678084D01*
X2707408Y2872046D02*
G01*
X2633517Y2678084D01*
X2753591Y2742737D02*
G01*
X2661226Y2742737D01*
X2498666Y2872046D02*
G01*
X2572557Y2678084D01*
X2498666Y2872046D02*
G01*
X2424775Y2678084D01*
X2544848Y2742737D02*
G01*
X2452484Y2742737D01*
X2289924Y2872046D02*
G01*
X2363815Y2678084D01*
X2289924Y2872046D02*
G01*
X2216035Y2678084D01*
X2336106Y2742737D02*
G01*
X2243744Y2742737D01*
D11*
X0Y2997200D02*
G01*
X0Y1679194D01*
X5050002Y1679194D01*
X5050002Y2997200D01*
X0Y2997200D01*
M02*
