G04 Layer: TopSolderMaskLayer*
G04 EasyEDA v6.5.23, 2023-04-27 09:42:27*
G04 070e00cd3d364d4cb8f93b061264e40a,f016fa541b524367aba1ea0f7d3472e8,10*
G04 Gerber Generator version 0.2*
G04 Scale: 100 percent, Rotated: No, Reflected: No *
G04 Dimensions in millimeters *
G04 leading zeros omitted , absolute positions ,4 integer and 5 decimal *
%FSLAX45Y45*%
%MOMM*%

%AMMACRO1*1,1,$1,$2,$3*1,1,$1,$4,$5*1,1,$1,0-$2,0-$3*1,1,$1,0-$4,0-$5*20,1,$1,$2,$3,$4,$5,0*20,1,$1,$4,$5,0-$2,0-$3,0*20,1,$1,0-$2,0-$3,0-$4,0-$5,0*20,1,$1,0-$4,0-$5,$2,$3,0*4,1,4,$2,$3,$4,$5,0-$2,0-$3,0-$4,0-$5,$2,$3,0*%
%ADD10MACRO1,0.2032X0.762X0.762X0.762X-0.762*%
%ADD11C,1.7272*%
%ADD12C,2.0032*%
%ADD13MACRO1,0.2032X-0.9X0.9X0.9X0.9*%
%ADD14C,1.7526*%
%ADD15C,1.7016*%
%ADD16O,2.1015960000000002X1.6256000000000002*%
%ADD17O,2.1015960000000002X1.3015976000000002*%
%ADD18O,1.3015976000000002X2.1015960000000002*%
%ADD19O,1.9000215999999999X1.6000222*%
%ADD20O,2.6000202X3.5998912*%
%ADD21C,1.8532*%

%LPD*%
D10*
G01*
X533400Y2781300D03*
D11*
G01*
X787400Y2781300D03*
G01*
X279400Y2781300D03*
D12*
G01*
X1905000Y2832100D03*
G01*
X1651000Y2832100D03*
D13*
G01*
X1397000Y2832100D03*
D14*
G01*
X1282700Y2501900D03*
G01*
X2044700Y2501900D03*
D15*
G01*
X76200Y1790700D03*
G01*
X584200Y1790700D03*
G01*
X1574800Y1790700D03*
G01*
X2082800Y1790700D03*
G01*
X825500Y1790700D03*
G01*
X1333500Y1790700D03*
D16*
G01*
X201904Y1130300D03*
G01*
X991895Y1130300D03*
G01*
X201904Y876300D03*
G01*
X991895Y876300D03*
G01*
X201904Y622300D03*
G01*
X991895Y622300D03*
G01*
X201904Y368300D03*
G01*
X991895Y368300D03*
D17*
G01*
X4114800Y2637662D03*
D18*
G01*
X4614799Y2137663D03*
G01*
X4363720Y2137663D03*
G01*
X3863720Y2137663D03*
G01*
X3614800Y2137663D03*
D19*
G01*
X1655140Y300736D03*
G01*
X1905127Y300736D03*
G01*
X2155139Y300736D03*
D20*
G01*
X2385136Y1000760D03*
G01*
X1425117Y1000760D03*
D19*
G01*
X4174312Y300736D03*
G01*
X4424299Y300736D03*
G01*
X4674311Y300736D03*
D20*
G01*
X4904308Y1000760D03*
G01*
X3944289Y1000760D03*
D19*
G01*
X2914726Y300736D03*
G01*
X3164713Y300736D03*
G01*
X3414725Y300736D03*
D20*
G01*
X3644722Y1000760D03*
G01*
X2684703Y1000760D03*
D14*
G01*
X3695700Y1727200D03*
G01*
X4457700Y1727200D03*
G01*
X1282700Y2197100D03*
G01*
X2044700Y2197100D03*
D21*
G01*
X698500Y2362200D03*
G01*
X698500Y2108200D03*
D19*
G01*
X2582113Y1732787D03*
G01*
X2832100Y1732787D03*
G01*
X3082112Y1732787D03*
D20*
G01*
X3312109Y2432812D03*
G01*
X2352090Y2432812D03*
D11*
G01*
X4889500Y2311400D03*
G01*
X203200Y2311400D03*
M02*
