G04 Layer: TopSilkscreenLayer*
G04 EasyEDA v6.5.23, 2023-04-27 09:42:27*
G04 070e00cd3d364d4cb8f93b061264e40a,f016fa541b524367aba1ea0f7d3472e8,10*
G04 Gerber Generator version 0.2*
G04 Scale: 100 percent, Rotated: No, Reflected: No *
G04 Dimensions in millimeters *
G04 leading zeros omitted , absolute positions ,4 integer and 5 decimal *
%FSLAX45Y45*%
%MOMM*%

%ADD10C,0.2032*%
%ADD11C,0.2500*%
%ADD12C,0.1520*%
%ADD13C,0.1524*%
%ADD14C,0.2540*%
%ADD15C,0.3000*%
%ADD16C,0.0121*%

%LPD*%
D10*
X114300Y1461262D02*
G01*
X114300Y1331976D01*
X114300Y1424178D02*
G01*
X141986Y1451863D01*
X160528Y1461262D01*
X188213Y1461262D01*
X206755Y1451863D01*
X215900Y1424178D01*
X215900Y1331976D01*
X286004Y1461262D02*
G01*
X341629Y1331976D01*
X397002Y1461262D02*
G01*
X341629Y1331976D01*
X323087Y1294892D01*
X304545Y1276350D01*
X286004Y1267205D01*
X276860Y1267205D01*
X457962Y1525778D02*
G01*
X457962Y1331976D01*
X457962Y1433576D02*
G01*
X476250Y1451863D01*
X494792Y1461262D01*
X522478Y1461262D01*
X541020Y1451863D01*
X559562Y1433576D01*
X568705Y1405889D01*
X568705Y1387347D01*
X559562Y1359662D01*
X541020Y1341120D01*
X522478Y1331976D01*
X494792Y1331976D01*
X476250Y1341120D01*
X457962Y1359662D01*
X629665Y1525778D02*
G01*
X629665Y1331976D01*
X801370Y1433576D02*
G01*
X783081Y1451863D01*
X764539Y1461262D01*
X736854Y1461262D01*
X718312Y1451863D01*
X699770Y1433576D01*
X690626Y1405889D01*
X690626Y1387347D01*
X699770Y1359662D01*
X718312Y1341120D01*
X736854Y1331976D01*
X764539Y1331976D01*
X783081Y1341120D01*
X801370Y1359662D01*
X908557Y1461262D02*
G01*
X890270Y1451863D01*
X871728Y1433576D01*
X862329Y1405889D01*
X862329Y1387347D01*
X871728Y1359662D01*
X890270Y1341120D01*
X908557Y1331976D01*
X936244Y1331976D01*
X954786Y1341120D01*
X973328Y1359662D01*
X982471Y1387347D01*
X982471Y1405889D01*
X973328Y1433576D01*
X954786Y1451863D01*
X936244Y1461262D01*
X908557Y1461262D01*
X1043431Y1461262D02*
G01*
X1043431Y1331976D01*
X1043431Y1405889D02*
G01*
X1052829Y1433576D01*
X1071118Y1451863D01*
X1089660Y1461262D01*
X1117345Y1461262D01*
X1178305Y1405889D02*
G01*
X1289050Y1405889D01*
X1289050Y1424178D01*
X1279905Y1442720D01*
X1270762Y1451863D01*
X1252220Y1461262D01*
X1224534Y1461262D01*
X1205992Y1451863D01*
X1187450Y1433576D01*
X1178305Y1405889D01*
X1178305Y1387347D01*
X1187450Y1359662D01*
X1205992Y1341120D01*
X1224534Y1331976D01*
X1252220Y1331976D01*
X1270762Y1341120D01*
X1289050Y1359662D01*
X920242Y2553715D02*
G01*
X909828Y2548636D01*
X899413Y2538221D01*
X894079Y2527807D01*
X889000Y2512060D01*
X889000Y2486152D01*
X894079Y2470657D01*
X899413Y2460244D01*
X909828Y2449829D01*
X920242Y2444750D01*
X941070Y2444750D01*
X951229Y2449829D01*
X961644Y2460244D01*
X966978Y2470657D01*
X972057Y2486152D01*
X972057Y2512060D01*
X966978Y2527807D01*
X961644Y2538221D01*
X951229Y2548636D01*
X941070Y2553715D01*
X920242Y2553715D01*
X1006347Y2553715D02*
G01*
X1006347Y2444750D01*
X1006347Y2553715D02*
G01*
X1079245Y2444750D01*
X1079245Y2553715D02*
G01*
X1079245Y2444750D01*
D11*
X4838700Y2151126D02*
G01*
X4936997Y2151126D01*
D10*
X4882895Y2527300D02*
G01*
X4959095Y2560065D01*
X4882895Y2592831D02*
G01*
X4959095Y2560065D01*
X4866386Y2628645D02*
G01*
X4861052Y2639568D01*
X4844541Y2656078D01*
X4959095Y2656078D01*
X4931918Y2697479D02*
G01*
X4937252Y2692145D01*
X4942840Y2697479D01*
X4937252Y2702813D01*
X4931918Y2697479D01*
X4844541Y2771647D02*
G01*
X4850129Y2755392D01*
X4866386Y2744470D01*
X4893818Y2738881D01*
X4910074Y2738881D01*
X4937252Y2744470D01*
X4953761Y2755392D01*
X4959095Y2771647D01*
X4959095Y2782570D01*
X4953761Y2798826D01*
X4937252Y2809747D01*
X4910074Y2815336D01*
X4893818Y2815336D01*
X4866386Y2809747D01*
X4850129Y2798826D01*
X4844541Y2782570D01*
X4844541Y2771647D01*
X4931918Y2856737D02*
G01*
X4937252Y2851404D01*
X4942840Y2856737D01*
X4937252Y2862326D01*
X4931918Y2856737D01*
X4866386Y2898139D02*
G01*
X4861052Y2909062D01*
X4844541Y2925571D01*
X4959095Y2925571D01*
D11*
X199136Y2182621D02*
G01*
X199136Y2089150D01*
X152400Y2135886D02*
G01*
X245871Y2135886D01*
D12*
X1041400Y2877565D02*
G01*
X1083055Y2768600D01*
X1124457Y2877565D02*
G01*
X1083055Y2768600D01*
X1184910Y2841244D02*
G01*
X1174495Y2835910D01*
X1164081Y2825750D01*
X1158747Y2810002D01*
X1158747Y2799587D01*
X1164081Y2784094D01*
X1174495Y2773679D01*
X1184910Y2768600D01*
X1200404Y2768600D01*
X1210818Y2773679D01*
X1221231Y2784094D01*
X1226312Y2799587D01*
X1226312Y2810002D01*
X1221231Y2825750D01*
X1210818Y2835910D01*
X1200404Y2841244D01*
X1184910Y2841244D01*
X2095500Y2874898D02*
G01*
X2137156Y2765932D01*
X2178558Y2874898D02*
G01*
X2137156Y2765932D01*
X2212847Y2874898D02*
G01*
X2218181Y2869819D01*
X2223261Y2874898D01*
X2218181Y2880232D01*
X2212847Y2874898D01*
X2218181Y2838577D02*
G01*
X2218181Y2765932D01*
D13*
X1460500Y2553715D02*
G01*
X1460500Y2444750D01*
X1460500Y2553715D02*
G01*
X1507236Y2553715D01*
X1522729Y2548636D01*
X1528063Y2543302D01*
X1533144Y2532887D01*
X1533144Y2522473D01*
X1528063Y2512060D01*
X1522729Y2506979D01*
X1507236Y2501900D01*
X1460500Y2501900D01*
X1496821Y2501900D02*
G01*
X1533144Y2444750D01*
X1567434Y2553715D02*
G01*
X1567434Y2444750D01*
X1567434Y2444750D02*
G01*
X1629918Y2444750D01*
X1695450Y2553715D02*
G01*
X1685036Y2548636D01*
X1674621Y2538221D01*
X1669287Y2527807D01*
X1664207Y2512060D01*
X1664207Y2486152D01*
X1669287Y2470657D01*
X1674621Y2460244D01*
X1685036Y2449829D01*
X1695450Y2444750D01*
X1716023Y2444750D01*
X1726437Y2449829D01*
X1736852Y2460244D01*
X1742186Y2470657D01*
X1747265Y2486152D01*
X1747265Y2512060D01*
X1742186Y2527807D01*
X1736852Y2538221D01*
X1726437Y2548636D01*
X1716023Y2553715D01*
X1695450Y2553715D01*
X1781555Y2553715D02*
G01*
X1807463Y2444750D01*
X1833626Y2553715D02*
G01*
X1807463Y2444750D01*
X1833626Y2553715D02*
G01*
X1859534Y2444750D01*
X1885442Y2553715D02*
G01*
X1859534Y2444750D01*
X241300Y1821687D02*
G01*
X251713Y1827021D01*
X267207Y1842515D01*
X267207Y1733550D01*
X301497Y1806194D02*
G01*
X301497Y1754123D01*
X306831Y1738629D01*
X317245Y1733550D01*
X332739Y1733550D01*
X343154Y1738629D01*
X358647Y1754123D01*
X358647Y1806194D02*
G01*
X358647Y1733550D01*
X1656842Y1740915D02*
G01*
X1641094Y1735836D01*
X1630679Y1720087D01*
X1625600Y1694179D01*
X1625600Y1678686D01*
X1630679Y1652523D01*
X1641094Y1637029D01*
X1656842Y1631950D01*
X1667255Y1631950D01*
X1682750Y1637029D01*
X1693163Y1652523D01*
X1698244Y1678686D01*
X1698244Y1694179D01*
X1693163Y1720087D01*
X1682750Y1735836D01*
X1667255Y1740915D01*
X1656842Y1740915D01*
X1737868Y1657857D02*
G01*
X1732534Y1652523D01*
X1737868Y1647444D01*
X1742947Y1652523D01*
X1737868Y1657857D01*
X1782571Y1715007D02*
G01*
X1782571Y1720087D01*
X1787652Y1730502D01*
X1792986Y1735836D01*
X1803400Y1740915D01*
X1823973Y1740915D01*
X1834387Y1735836D01*
X1839721Y1730502D01*
X1844802Y1720087D01*
X1844802Y1709673D01*
X1839721Y1699260D01*
X1829307Y1683765D01*
X1777237Y1631950D01*
X1850136Y1631950D01*
X1889505Y1715007D02*
G01*
X1889505Y1720087D01*
X1894839Y1730502D01*
X1899920Y1735836D01*
X1910334Y1740915D01*
X1931161Y1740915D01*
X1941575Y1735836D01*
X1946656Y1730502D01*
X1951990Y1720087D01*
X1951990Y1709673D01*
X1946656Y1699260D01*
X1936241Y1683765D01*
X1884426Y1631950D01*
X1957070Y1631950D01*
X1991359Y1704594D02*
G01*
X1991359Y1652523D01*
X1996440Y1637029D01*
X2006854Y1631950D01*
X2022602Y1631950D01*
X2033015Y1637029D01*
X2048509Y1652523D01*
X2048509Y1704594D02*
G01*
X2048509Y1631950D01*
X1003300Y1808987D02*
G01*
X1013713Y1814321D01*
X1029207Y1829815D01*
X1029207Y1720850D01*
X1063497Y1793494D02*
G01*
X1063497Y1741423D01*
X1068831Y1725929D01*
X1079245Y1720850D01*
X1094739Y1720850D01*
X1105154Y1725929D01*
X1120647Y1741423D01*
X1120647Y1793494D02*
G01*
X1120647Y1720850D01*
X635507Y1001521D02*
G01*
X645921Y1006855D01*
X656336Y1017270D01*
X661415Y1027429D01*
X661415Y1048257D01*
X656336Y1058671D01*
X645921Y1069086D01*
X635507Y1074420D01*
X619760Y1079500D01*
X593852Y1079500D01*
X578357Y1074420D01*
X567944Y1069086D01*
X557529Y1058671D01*
X552450Y1048257D01*
X552450Y1027429D01*
X557529Y1017270D01*
X567944Y1006855D01*
X578357Y1001521D01*
X661415Y935989D02*
G01*
X656336Y946404D01*
X645921Y956818D01*
X635507Y962152D01*
X619760Y967231D01*
X593852Y967231D01*
X578357Y962152D01*
X567944Y956818D01*
X557529Y946404D01*
X552450Y935989D01*
X552450Y915415D01*
X557529Y905002D01*
X567944Y894587D01*
X578357Y889254D01*
X593852Y884173D01*
X619760Y884173D01*
X635507Y889254D01*
X645921Y894587D01*
X656336Y905002D01*
X661415Y915415D01*
X661415Y935989D01*
X661415Y849884D02*
G01*
X552450Y849884D01*
X661415Y849884D02*
G01*
X661415Y803147D01*
X656336Y787400D01*
X651002Y782320D01*
X640587Y777239D01*
X630173Y777239D01*
X619760Y782320D01*
X614679Y787400D01*
X609600Y803147D01*
X609600Y849884D01*
X609600Y813562D02*
G01*
X552450Y777239D01*
X661415Y742950D02*
G01*
X552450Y742950D01*
X661415Y742950D02*
G01*
X661415Y675386D01*
X609600Y742950D02*
G01*
X609600Y701294D01*
X552450Y742950D02*
G01*
X552450Y675386D01*
X3915156Y2871215D02*
G01*
X3873500Y2762250D01*
X3915156Y2871215D02*
G01*
X3956558Y2762250D01*
X3888993Y2798571D02*
G01*
X3941063Y2798571D01*
X3990847Y2871215D02*
G01*
X3990847Y2793237D01*
X3996181Y2777744D01*
X4006595Y2767329D01*
X4022090Y2762250D01*
X4032504Y2762250D01*
X4047997Y2767329D01*
X4058411Y2777744D01*
X4063745Y2793237D01*
X4063745Y2871215D01*
X4098036Y2871215D02*
G01*
X4098036Y2762250D01*
X4098036Y2871215D02*
G01*
X4134358Y2871215D01*
X4149852Y2866136D01*
X4160265Y2855721D01*
X4165600Y2845307D01*
X4170679Y2829560D01*
X4170679Y2803652D01*
X4165600Y2788157D01*
X4160265Y2777744D01*
X4149852Y2767329D01*
X4134358Y2762250D01*
X4098036Y2762250D01*
X4204970Y2871215D02*
G01*
X4204970Y2762250D01*
X4270502Y2871215D02*
G01*
X4260088Y2866136D01*
X4249674Y2855721D01*
X4244340Y2845307D01*
X4239259Y2829560D01*
X4239259Y2803652D01*
X4244340Y2788157D01*
X4249674Y2777744D01*
X4260088Y2767329D01*
X4270502Y2762250D01*
X4291329Y2762250D01*
X4301490Y2767329D01*
X4311904Y2777744D01*
X4317238Y2788157D01*
X4322318Y2803652D01*
X4322318Y2829560D01*
X4317238Y2845307D01*
X4311904Y2855721D01*
X4301490Y2866136D01*
X4291329Y2871215D01*
X4270502Y2871215D01*
X1892427Y1487043D02*
G01*
X1892427Y1377822D01*
X1892427Y1487043D02*
G01*
X1939163Y1487043D01*
X1954656Y1481709D01*
X1959736Y1476629D01*
X1965070Y1466214D01*
X1965070Y1450467D01*
X1959736Y1440053D01*
X1954656Y1434972D01*
X1939163Y1429893D01*
X1892427Y1429893D01*
X2030602Y1487043D02*
G01*
X2020188Y1481709D01*
X2009775Y1471295D01*
X2004440Y1460880D01*
X1999361Y1445387D01*
X1999361Y1419479D01*
X2004440Y1403730D01*
X2009775Y1393317D01*
X2020188Y1382903D01*
X2030602Y1377822D01*
X2051177Y1377822D01*
X2061590Y1382903D01*
X2072004Y1393317D01*
X2077338Y1403730D01*
X2082418Y1419479D01*
X2082418Y1445387D01*
X2077338Y1460880D01*
X2072004Y1471295D01*
X2061590Y1481709D01*
X2051177Y1487043D01*
X2030602Y1487043D01*
X2153031Y1487043D02*
G01*
X2153031Y1377822D01*
X2116709Y1487043D02*
G01*
X2189606Y1487043D01*
X2265299Y1487043D02*
G01*
X2223897Y1377822D01*
X2265299Y1487043D02*
G01*
X2306954Y1377822D01*
X2239390Y1414145D02*
G01*
X2291206Y1414145D01*
X4457750Y1487043D02*
G01*
X4457750Y1377822D01*
X4457750Y1487043D02*
G01*
X4504486Y1487043D01*
X4519980Y1481709D01*
X4525314Y1476629D01*
X4530394Y1466214D01*
X4530394Y1450467D01*
X4525314Y1440053D01*
X4519980Y1434972D01*
X4504486Y1429893D01*
X4457750Y1429893D01*
X4595926Y1487043D02*
G01*
X4585512Y1481709D01*
X4575098Y1471295D01*
X4570018Y1460880D01*
X4564684Y1445387D01*
X4564684Y1419479D01*
X4570018Y1403730D01*
X4575098Y1393317D01*
X4585512Y1382903D01*
X4595926Y1377822D01*
X4616754Y1377822D01*
X4627168Y1382903D01*
X4637582Y1393317D01*
X4642662Y1403730D01*
X4647742Y1419479D01*
X4647742Y1445387D01*
X4642662Y1460880D01*
X4637582Y1471295D01*
X4627168Y1481709D01*
X4616754Y1487043D01*
X4595926Y1487043D01*
X4718608Y1487043D02*
G01*
X4718608Y1377822D01*
X4682032Y1487043D02*
G01*
X4754930Y1487043D01*
X4789220Y1487043D02*
G01*
X4789220Y1377822D01*
X4789220Y1487043D02*
G01*
X4835956Y1487043D01*
X4851450Y1481709D01*
X4856784Y1476629D01*
X4861864Y1466214D01*
X4861864Y1455801D01*
X4856784Y1445387D01*
X4851450Y1440053D01*
X4835956Y1434972D01*
X4789220Y1434972D02*
G01*
X4835956Y1434972D01*
X4851450Y1429893D01*
X4856784Y1424559D01*
X4861864Y1414145D01*
X4861864Y1398651D01*
X4856784Y1388237D01*
X4851450Y1382903D01*
X4835956Y1377822D01*
X4789220Y1377822D01*
X3187603Y1499743D02*
G01*
X3187603Y1390522D01*
X3187603Y1499743D02*
G01*
X3234339Y1499743D01*
X3250087Y1494409D01*
X3255167Y1489329D01*
X3260501Y1478914D01*
X3260501Y1463167D01*
X3255167Y1452753D01*
X3250087Y1447672D01*
X3234339Y1442593D01*
X3187603Y1442593D01*
X3325779Y1499743D02*
G01*
X3315619Y1494409D01*
X3305205Y1483995D01*
X3299871Y1473580D01*
X3294791Y1458087D01*
X3294791Y1432179D01*
X3299871Y1416430D01*
X3305205Y1406017D01*
X3315619Y1395603D01*
X3325779Y1390522D01*
X3346607Y1390522D01*
X3357021Y1395603D01*
X3367435Y1406017D01*
X3372769Y1416430D01*
X3377849Y1432179D01*
X3377849Y1458087D01*
X3372769Y1473580D01*
X3367435Y1483995D01*
X3357021Y1494409D01*
X3346607Y1499743D01*
X3325779Y1499743D01*
X3448461Y1499743D02*
G01*
X3448461Y1390522D01*
X3412139Y1499743D02*
G01*
X3484783Y1499743D01*
X3519073Y1499743D02*
G01*
X3519073Y1390522D01*
X3591971Y1499743D02*
G01*
X3519073Y1426845D01*
X3545235Y1452753D02*
G01*
X3591971Y1390522D01*
X3975100Y1758187D02*
G01*
X3985513Y1763521D01*
X4001008Y1779015D01*
X4001008Y1670050D01*
X4066540Y1779015D02*
G01*
X4051045Y1773936D01*
X4040631Y1758187D01*
X4035297Y1732279D01*
X4035297Y1716786D01*
X4040631Y1690623D01*
X4051045Y1675129D01*
X4066540Y1670050D01*
X4076954Y1670050D01*
X4092447Y1675129D01*
X4102861Y1690623D01*
X4108195Y1716786D01*
X4108195Y1732279D01*
X4102861Y1758187D01*
X4092447Y1773936D01*
X4076954Y1779015D01*
X4066540Y1779015D01*
X4142486Y1779015D02*
G01*
X4142486Y1670050D01*
X4194302Y1742694D02*
G01*
X4142486Y1690623D01*
X4163059Y1711452D02*
G01*
X4199636Y1670050D01*
X1612900Y2215387D02*
G01*
X1623313Y2220721D01*
X1638807Y2236215D01*
X1638807Y2127250D01*
X1673097Y2236215D02*
G01*
X1673097Y2127250D01*
X1725168Y2199894D02*
G01*
X1673097Y2147823D01*
X1693926Y2168652D02*
G01*
X1730247Y2127250D01*
D10*
X869950Y2304034D02*
G01*
X804418Y2304034D01*
X837184Y2336800D02*
G01*
X837184Y2271268D01*
D13*
X623315Y2273300D02*
G01*
X514350Y2273300D01*
X514350Y2273300D02*
G01*
X514350Y2211070D01*
X2965450Y2934715D02*
G01*
X2965450Y2825750D01*
X2965450Y2825750D02*
G01*
X3027679Y2825750D01*
X3061970Y2934715D02*
G01*
X3061970Y2825750D01*
X3061970Y2934715D02*
G01*
X3108959Y2934715D01*
X3124454Y2929636D01*
X3129534Y2924302D01*
X3134868Y2913887D01*
X3134868Y2898394D01*
X3129534Y2887979D01*
X3124454Y2882900D01*
X3108959Y2877565D01*
X3061970Y2877565D01*
X3169158Y2934715D02*
G01*
X3169158Y2825750D01*
X3169158Y2934715D02*
G01*
X3236722Y2934715D01*
X3169158Y2882900D02*
G01*
X3210559Y2882900D01*
D14*
X965200Y2959100D02*
G01*
X965200Y2603500D01*
X965200Y2603500D02*
G01*
X101600Y2603500D01*
X101600Y2603500D02*
G01*
X101600Y2959100D01*
X101600Y2959100D02*
G01*
X965200Y2959100D01*
X1270000Y2959100D02*
G01*
X2032000Y2959100D01*
X2032000Y2705100D01*
X1270000Y2705100D01*
X1270000Y2959100D01*
X1409700Y2400300D02*
G01*
X1409700Y2603500D01*
X1409700Y2603500D02*
G01*
X1917700Y2603500D01*
X1917700Y2603500D02*
G01*
X1917700Y2400300D01*
X1917700Y2400300D02*
G01*
X1409700Y2400300D01*
X76200Y1993900D02*
G01*
X584200Y1993900D01*
X76200Y1587500D02*
G01*
X584200Y1587500D01*
X76200Y1993900D02*
G01*
X76200Y1893813D01*
X76200Y1687586D02*
G01*
X76200Y1587500D01*
X584200Y1993900D02*
G01*
X584200Y1893813D01*
X584200Y1687586D02*
G01*
X584200Y1587500D01*
X1574800Y1993900D02*
G01*
X2082800Y1993900D01*
X1574800Y1587500D02*
G01*
X2082800Y1587500D01*
X1574800Y1993900D02*
G01*
X1574800Y1893813D01*
X1574800Y1687586D02*
G01*
X1574800Y1587500D01*
X2082800Y1993900D02*
G01*
X2082800Y1893813D01*
X2082800Y1687586D02*
G01*
X2082800Y1587500D01*
X825500Y1993900D02*
G01*
X1333500Y1993900D01*
X825500Y1587500D02*
G01*
X1333500Y1587500D01*
X825500Y1993900D02*
G01*
X825500Y1893813D01*
X825500Y1687586D02*
G01*
X825500Y1587500D01*
X1333500Y1993900D02*
G01*
X1333500Y1893813D01*
X1333500Y1687586D02*
G01*
X1333500Y1587500D01*
D13*
X516900Y1221917D02*
G01*
X324759Y1221917D01*
X324759Y276679D01*
X869038Y276679D01*
X869038Y1221917D01*
X676899Y1221917D01*
D14*
X4714240Y2988563D02*
G01*
X3514239Y2988563D01*
X3514239Y1888563D01*
X4714240Y1888563D01*
X4714240Y2988563D01*
X3866261Y2990824D02*
G01*
X3866261Y3290823D01*
X4366259Y3290823D01*
X4366259Y2990824D01*
X1415133Y1198526D02*
G01*
X1415133Y1550730D01*
X1415133Y450761D02*
G01*
X1415133Y802990D01*
X2395115Y802990D02*
G01*
X2395115Y450761D01*
X2395115Y1550730D02*
G01*
X2395115Y1198526D01*
X1984027Y1180843D02*
G01*
X1730027Y926843D01*
X1806227Y850643D01*
X2060227Y1104643D01*
X1984027Y1180843D01*
X2395126Y450761D02*
G01*
X1415133Y450761D01*
X1415133Y1550730D02*
G01*
X2395115Y1550730D01*
X3934305Y1198526D02*
G01*
X3934305Y1550730D01*
X3934305Y450761D02*
G01*
X3934305Y802990D01*
X4914287Y802990D02*
G01*
X4914287Y450761D01*
X4914287Y1550730D02*
G01*
X4914287Y1198526D01*
X4503199Y1180843D02*
G01*
X4249199Y926843D01*
X4325399Y850643D01*
X4579399Y1104643D01*
X4503199Y1180843D01*
X4914298Y450761D02*
G01*
X3934305Y450761D01*
X3934305Y1550730D02*
G01*
X4914287Y1550730D01*
X2674719Y1198526D02*
G01*
X2674719Y1550730D01*
X2674719Y450761D02*
G01*
X2674719Y802990D01*
X3654701Y802990D02*
G01*
X3654701Y450761D01*
X3654701Y1550730D02*
G01*
X3654701Y1198526D01*
X3243613Y1180843D02*
G01*
X2989613Y926843D01*
X3065813Y850643D01*
X3319813Y1104643D01*
X3243613Y1180843D01*
X3654712Y450761D02*
G01*
X2674719Y450761D01*
X2674719Y1550730D02*
G01*
X3654701Y1550730D01*
X3822700Y1625600D02*
G01*
X3822700Y1828800D01*
X3822700Y1828800D02*
G01*
X4330700Y1828800D01*
X4330700Y1828800D02*
G01*
X4330700Y1625600D01*
X4330700Y1625600D02*
G01*
X3822700Y1625600D01*
X1409700Y2095500D02*
G01*
X1409700Y2298700D01*
X1409700Y2298700D02*
G01*
X1917700Y2298700D01*
X1917700Y2298700D02*
G01*
X1917700Y2095500D01*
X1917700Y2095500D02*
G01*
X1409700Y2095500D01*
X571705Y2044954D02*
G01*
X826493Y2044420D01*
X2342106Y2630578D02*
G01*
X2342106Y2982782D01*
X2342106Y1882813D02*
G01*
X2342106Y2235042D01*
X3322088Y2235042D02*
G01*
X3322088Y1882813D01*
X3322088Y2982782D02*
G01*
X3322088Y2630578D01*
X2911000Y2612895D02*
G01*
X2657000Y2358895D01*
X2733200Y2282695D01*
X2987200Y2536695D01*
X2911000Y2612895D01*
X3322099Y1882813D02*
G01*
X2342106Y1882813D01*
X2342106Y2982782D02*
G01*
X3322088Y2982782D01*
D13*
G75*
G01*
X516900Y1221918D02*
G03*
X676900Y1221918I80000J0D01*
D14*
G75*
G01*
X4689856Y2888488D02*
G03*
X4689856Y2887218I-74997J-635D01*
G75*
G01*
X4689856Y2634488D02*
G03*
X4689856Y2633218I-74997J-635D01*
G75*
G01*
X3689858Y2888488D02*
G03*
X3689858Y2887218I-74997J-635D01*
G75*
G01*
X3689858Y2637028D02*
G03*
X3689858Y2635504I-74996J-762D01*
G75*
G01*
X4189730Y2136394D02*
G03*
X4189730Y2135124I-74997J-635D01*
G75*
G01*
X825246Y2044954D02*
G03*
X571754Y2044954I-126746J190246D01*
D15*
G75*
G01
X231673Y1274547D02*
G03X231673Y1274547I-15011J0D01*
D14*
G75*
G01
X1704619Y1414043D02*
G03X1704619Y1414043I-76200J0D01*
G75*
G01
X2263419Y575843D02*
G03X2263419Y575843I-76200J0D01*
G75*
G01
X2205126Y1007643D02*
G03X2205126Y1007643I-299999J0D01*
G75*
G01
X2155139Y1007643D02*
G03X2155139Y1007643I-250012J0D01*
G75*
G01
X4223791Y1414043D02*
G03X4223791Y1414043I-76200J0D01*
G75*
G01
X4782591Y575843D02*
G03X4782591Y575843I-76200J0D01*
G75*
G01
X4724298Y1007643D02*
G03X4724298Y1007643I-299999J0D01*
G75*
G01
X4674311Y1007643D02*
G03X4674311Y1007643I-250012J0D01*
G75*
G01
X2964205Y1414043D02*
G03X2964205Y1414043I-76200J0D01*
G75*
G01
X3523005Y575843D02*
G03X3523005Y575843I-76200J0D01*
G75*
G01
X3464712Y1007643D02*
G03X3464712Y1007643I-299999J0D01*
G75*
G01
X3414725Y1007643D02*
G03X3414725Y1007643I-250012J0D01*
G75*
G01
X2631592Y2846095D02*
G03X2631592Y2846095I-76200J0D01*
G75*
G01
X3190392Y2007895D02*
G03X3190392Y2007895I-76200J0D01*
G75*
G01
X3132099Y2439695D02*
G03X3132099Y2439695I-299999J0D01*
G75*
G01
X3082112Y2439695D02*
G03X3082112Y2439695I-250012J0D01*
M02*
